<?xml version="1.0" standalone="no"?>
<!DOCTYPE svg PUBLIC "-//W3C//DTD SVG 20010904//EN"
 "http://www.w3.org/TR/2001/REC-SVG-20010904/DTD/svg10.dtd">
<svg version="1.0" xmlns="http://www.w3.org/2000/svg"
 width="300.000000pt" height="300.000000pt" viewBox="0 0 300.000000 300.000000"
 preserveAspectRatio="xMidYMid meet">
<metadata>
Created by potrace 1.10, written by Peter Selinger 2001-2011
</metadata>
<g transform="translate(0.000000,300.000000) scale(0.100000,-0.100000)"
fill="#000000" stroke="none">
<path d="M1558 2343 c-6 -52 5 -106 22 -111 12 -4 13 -2 3 9 -7 7 -13 38 -13
70 0 37 5 59 13 62 7 4 6 6 -4 6 -12 1 -18 -10 -21 -36z"/>
<path d="M1699 2371 c10 -6 12 -26 9 -74 -3 -53 -1 -64 9 -55 8 6 10 20 7 34
-4 16 -2 24 6 24 10 0 10 3 1 14 -7 8 -11 20 -10 28 3 28 -2 38 -18 38 -14 0
-15 -2 -4 -9z"/>
<path d="M1623 2333 c-18 -7 -16 -38 2 -53 18 -15 45 2 45 30 0 14 -23 34 -33
29 -1 0 -8 -3 -14 -6z"/>
<path d="M1134 2317 c-2 -7 -3 -60 -2 -118 l3 -104 138 -3 137 -3 0 -74 0 -75
155 0 155 0 0 120 0 120 -132 0 c-103 0 -129 -3 -120 -12 7 -7 42 -13 80 -14
157 -4 142 0 142 -39 0 -19 -2 -35 -4 -35 -3 0 -17 11 -31 24 -30 28 -93 31
-112 6 -10 -13 -12 -13 -18 3 -4 9 -11 17 -15 17 -14 0 -60 -53 -60 -69 1 -29
35 -58 77 -64 36 -6 44 -4 57 15 9 12 16 19 16 14 0 -4 9 2 19 15 17 21 18 26
5 40 -16 18 -18 29 -5 29 5 0 16 -12 26 -26 16 -25 16 -27 -11 -55 -21 -22
-24 -29 -12 -29 9 0 28 14 42 31 l26 31 0 -46 0 -46 -40 -1 c-22 0 -53 -1 -70
-1 -139 0 -137 0 -142 32 -3 17 -1 30 3 30 4 0 5 9 2 20 -3 11 -10 20 -16 20
-5 0 -2 8 7 19 14 15 16 36 14 127 l-3 109 -153 3 c-120 2 -154 0 -158 -11z
m273 -30 c6 -4 10 -15 8 -25 -2 -9 -4 -19 -4 -21 -1 -2 -10 4 -20 13 -15 14
-37 17 -106 17 -47 0 -90 -3 -95 -6 -5 -3 -11 -1 -15 5 -3 6 3 14 14 18 26 9
202 9 218 -1z m-197 -52 c0 -21 18 -19 23 3 3 9 5 -3 5 -28 1 -41 0 -43 -10
-20 -11 25 -11 25 -15 3 -7 -37 -18 -26 -18 17 0 22 3 40 7 40 5 0 8 -7 8 -15z
m110 -21 c7 -19 9 -38 6 -42 -4 -3 -10 5 -13 18 l-7 25 -7 -25 c-6 -22 -7 -20
-8 13 -1 20 -6 37 -12 37 -8 0 -10 -12 -6 -35 3 -19 2 -35 -3 -35 -4 0 -10 18
-12 40 -3 38 -2 40 23 40 23 0 30 -6 39 -36z m32 4 l1 -33 4 33 c6 43 23 41
23 -2 0 -19 6 -37 13 -39 6 -3 -2 -6 -19 -6 -32 -1 -44 15 -44 62 0 32 20 18
22 -15z m-47 -69 c44 0 90 2 103 6 18 6 22 4 22 -13 0 -20 -5 -21 -117 -21
-111 0 -143 7 -143 31 0 5 12 7 28 4 15 -3 63 -6 107 -7z m269 -94 c-9 -25
-21 -45 -25 -45 -14 0 -11 14 12 67 26 59 37 41 13 -22z m-54 41 c0 -8 -7 -17
-16 -20 -16 -6 -16 -8 0 -24 28 -31 19 -49 -10 -21 -25 26 -26 27 -9 53 19 28
35 34 35 12z"/>
<path d="M1828 2115 c-32 -18 -42 -45 -33 -91 6 -34 25 -48 25 -19 0 8 -4 15
-10 15 -15 0 -12 43 6 68 11 16 25 22 52 22 28 0 33 3 22 10 -20 13 -30 12
-62 -5z"/>
<path d="M673 2107 c-10 -16 5 -18 128 -19 96 -1 124 2 124 12 0 10 -29 13
-123 14 -68 0 -126 -3 -129 -7z"/>
<path d="M1910 2090 c0 -5 5 -10 10 -10 6 0 10 -16 10 -35 0 -41 -35 -70 -75
-63 -13 3 -22 1 -19 -3 7 -12 51 -11 73 1 27 14 45 64 32 88 -6 11 -7 22 -4
26 3 3 -1 6 -10 6 -9 0 -17 -4 -17 -10z"/>
<path d="M670 2035 c0 -13 13 -15 85 -13 48 2 85 7 85 13 0 6 -37 11 -85 13
-72 2 -85 0 -85 -13z"/>
<path d="M1015 2040 c-5 -8 -9 -166 -6 -227 1 -10 33 -13 126 -13 116 0 155 9
105 25 -26 8 -25 15 5 47 14 15 25 32 25 38 0 5 11 10 25 10 25 0 26 1 23 63
l-3 62 -147 3 c-92 2 -149 -1 -153 -8z m82 -38 c-29 -32 -39 -73 -26 -106 7
-17 19 -39 27 -48 14 -17 12 -18 -20 -18 -29 0 -37 4 -41 23 -6 25 1 145 9
158 3 5 19 9 36 9 29 0 30 -1 15 -18z m191 -18 c4 -45 -25 -55 -40 -14 -5 17
-14 30 -19 30 -5 0 -9 5 -9 11 0 6 14 9 33 7 28 -3 32 -7 35 -34z m-108 5 c0
-6 6 -9 14 -6 18 7 36 -11 29 -29 -3 -8 0 -14 6 -14 6 0 11 -7 11 -15 0 -8 -4
-15 -9 -15 -5 0 -11 -9 -13 -20 -2 -12 -6 -19 -9 -18 -3 2 -13 -3 -22 -11 -10
-8 -24 -10 -34 -6 -10 5 -25 9 -33 9 -8 1 -15 10 -15 20 0 11 -6 21 -13 24
-17 5 -15 32 3 32 9 0 14 8 12 23 -2 17 3 22 21 20 12 -2 22 2 22 7 0 6 7 10
15 10 8 0 15 -5 15 -11z"/>
<path d="M1143 1953 c-19 -7 -16 -51 4 -62 37 -20 71 27 41 57 -13 13 -24 14
-45 5z"/>
<path d="M672 1968 c3 -9 29 -13 86 -13 111 0 107 19 -4 23 -67 2 -85 0 -82
-10z"/>
<path d="M1275 1675 c0 -118 2 -215 5 -215 3 0 24 18 45 40 l40 41 183 -3
c159 -3 182 -1 178 12 -20 63 -20 63 4 50 16 -9 25 -9 33 -1 18 18 28 12 21
-13 -4 -17 0 -28 16 -39 20 -14 25 -13 57 9 20 13 46 24 59 24 l24 0 0 155 0
155 -332 0 -333 0 0 -215z m415 175 c0 -6 -72 -10 -196 -10 -127 0 -193 3
-189 10 4 6 80 10 196 10 119 0 189 -4 189 -10z m117 -3 c4 -4 -9 -24 -28 -44
-25 -28 -20 -25 18 10 29 26 56 47 60 47 5 0 18 -7 29 -15 19 -13 21 -25 23
-123 1 -89 -2 -112 -15 -123 -14 -11 -15 -9 -9 22 5 26 2 39 -9 48 -9 7 -13
18 -9 24 3 6 1 7 -5 3 -8 -5 -12 0 -12 13 0 11 -4 23 -10 26 -5 3 -10 1 -10
-6 0 -10 -3 -10 -12 -1 -24 24 -98 7 -98 -22 0 -8 -11 -21 -25 -30 -19 -12
-25 -25 -25 -51 0 -25 4 -35 16 -35 8 0 12 -4 9 -10 -3 -5 -46 -10 -94 -10
l-89 0 4 33 c1 17 3 38 3 45 1 8 20 12 63 12 34 0 59 3 55 6 -3 3 -78 6 -166
5 -96 0 -162 3 -166 9 -4 6 60 10 179 10 115 0 186 4 186 10 0 6 -71 11 -180
12 -156 3 -178 5 -170 18 7 11 33 16 106 17 54 2 103 -2 109 -7 7 -5 15 -7 18
-3 4 3 7 2 7 -4 0 -15 89 -10 119 6 21 11 23 18 18 58 -4 37 -2 46 14 52 24 8
86 7 96 -2z m-117 -37 c0 -6 -72 -10 -196 -10 -127 0 -193 3 -189 10 4 6 80
10 196 10 119 0 189 -4 189 -10z m-180 -40 c0 -6 -42 -10 -106 -10 -67 0 -103
4 -99 10 3 6 50 10 106 10 59 0 99 -4 99 -10z m180 0 c0 -6 -34 -10 -81 -10
-51 0 -78 4 -74 10 3 6 40 10 81 10 43 0 74 -4 74 -10z m125 -50 c4 -6 11 -8
16 -5 5 4 9 0 9 -8 0 -8 7 -20 16 -27 22 -19 14 -69 -16 -89 -13 -9 -21 -11
-17 -5 3 6 -2 19 -13 29 -15 14 -31 16 -70 13 -27 -3 -52 -3 -55 0 -8 8 56 83
79 92 29 12 44 12 51 0z m-305 -80 c0 -6 -40 -10 -99 -10 -56 0 -103 4 -106
10 -4 6 32 10 99 10 64 0 106 -4 106 -10z m0 -40 c0 -6 -40 -10 -99 -10 -56 0
-103 4 -106 10 -4 6 32 10 99 10 64 0 106 -4 106 -10z"/>
<path d="M1819 1803 c-24 -26 -33 -39 -20 -28 39 32 73 67 68 71 -2 2 -23 -18
-48 -43z"/>
<path d="M2033 1858 c3 -10 59 -13 237 -13 178 0 234 3 238 13 3 9 -49 12
-238 12 -189 0 -241 -3 -237 -12z"/>
<path d="M2037 1804 c-20 -20 6 -24 154 -24 124 0 160 3 157 13 -4 9 -45 13
-154 15 -83 1 -153 -1 -157 -4z"/>
<path d="M980 1751 c0 -6 5 -13 10 -16 19 -12 10 -45 -35 -135 -25 -49 -45
-95 -45 -103 0 -7 9 -30 20 -52 11 -22 20 -49 20 -61 0 -17 6 -21 27 -20 14 1
28 -5 30 -11 6 -16 -63 -18 -72 -3 -10 16 -85 12 -85 -4 0 -20 9 -21 104 -18
l85 3 -11 25 c-8 17 -8 37 -1 69 6 25 7 45 4 45 -4 0 -21 -13 -38 -30 l-30
-30 -6 36 c-4 26 0 48 13 75 11 21 20 42 20 46 -1 4 -12 -14 -26 -40 -14 -27
-28 -47 -30 -44 -10 10 57 128 68 121 7 -4 8 -3 4 5 -9 14 3 53 14 46 5 -3 10
3 13 12 3 13 6 11 12 -11 7 -26 -11 -79 -66 -188 -6 -11 -5 -18 1 -18 14 0
100 151 100 177 0 40 -30 99 -59 116 -33 19 -41 21 -41 8z"/>
<path d="M2037 1734 c-20 -20 6 -24 154 -24 124 0 160 3 157 13 -4 9 -45 13
-154 15 -83 1 -153 -1 -157 -4z"/>
<path d="M832 1557 c-19 -53 -15 -111 9 -138 l21 -24 -16 27 c-29 49 -20 105
16 99 5 0 -9 55 -17 66 0 1 -7 -12 -13 -30z"/>
<path d="M2045 1570 c3 -5 12 -7 19 -4 18 7 65 -17 90 -45 17 -18 18 -32 14
-113 -4 -62 -3 -80 3 -53 15 74 11 160 -8 177 -41 36 -136 66 -118 38z"/>
<path d="M1880 1528 c0 -4 12 -43 26 -88 24 -74 26 -92 22 -213 -3 -123 -6
-137 -33 -192 -38 -76 -67 -96 -141 -101 -107 -7 -224 -26 -224 -36 0 -5 5 -6
11 -2 7 4 9 -1 7 -12 -2 -11 -9 -18 -15 -17 -5 1 -16 -17 -22 -40 -7 -23 -15
-50 -18 -61 -3 -10 -1 -16 3 -13 5 3 9 -21 10 -54 1 -32 6 -65 13 -73 9 -11 8
-15 -5 -20 -34 -13 -44 -7 -44 29 0 55 -25 86 -67 83 -19 -1 -39 -9 -46 -18
-11 -13 -10 -13 8 -1 11 8 3 -1 -17 -20 -20 -19 -38 -44 -40 -57 -3 -21 -5
-22 -23 -8 -18 13 -19 16 -4 28 9 7 42 57 74 111 55 94 57 99 53 155 -3 31 -1
66 4 77 10 23 67 51 189 96 112 40 198 32 199 -19 0 -7 -8 -15 -17 -19 -10 -3
-26 -13 -35 -21 -11 -9 -29 -13 -50 -9 -35 5 -126 -24 -165 -52 -13 -9 -22
-27 -22 -41 0 -21 1 -22 9 -8 6 9 30 28 54 42 36 21 57 26 113 26 57 0 70 3
80 19 7 11 25 21 40 23 25 3 28 7 31 46 3 41 3 42 -30 43 -54 1 -103 23 -100
45 2 11 5 29 7 42 2 13 9 29 15 37 8 9 8 15 2 15 -6 0 -12 -5 -14 -11 -2 -7
-24 -11 -53 -10 -28 1 -239 4 -469 7 -328 4 -421 2 -427 -8 -14 -23 2 -28 94
-28 l92 -1 120 -150 c66 -82 125 -159 132 -171 10 -19 -3 -38 -128 -194 -76
-95 -139 -176 -139 -179 0 -19 31 15 150 164 74 94 139 170 143 170 8 1 54
-49 70 -75 4 -8 -4 -36 -20 -69 l-28 -56 -57 5 c-32 2 -60 0 -63 -4 -6 -10
125 -130 142 -130 6 0 19 20 28 44 9 24 31 58 49 75 l32 31 32 -35 c18 -19 32
-38 32 -43 0 -5 -25 -19 -55 -31 -30 -13 -58 -27 -61 -32 -3 -5 44 -9 110 -9
l116 0 0 38 c0 20 -4 64 -9 97 -5 33 -12 88 -15 121 -11 100 8 92 123 -52 55
-68 102 -121 104 -117 3 5 -39 64 -94 131 -54 67 -99 124 -99 126 0 1 20 17
44 34 41 30 50 32 129 32 l85 0 36 42 c55 63 76 145 76 287 0 120 -14 204 -43
256 -9 17 -16 27 -17 23z m-555 -398 l57 -71 -73 -89 c-40 -50 -73 -90 -75
-90 -1 0 -52 62 -113 139 -61 76 -117 144 -126 151 -8 7 -15 16 -15 21 0 5 65
9 144 9 l144 0 57 -70z m159 58 c-5 -7 -27 -36 -50 -65 l-42 -51 -51 64 -52
64 101 0 c78 0 99 -3 94 -12z m213 -17 c-9 -23 -22 -32 -81 -51 -39 -12 -100
-35 -135 -51 -38 -17 -68 -26 -73 -21 -6 6 8 29 32 57 23 26 48 58 57 71 14
23 21 24 113 24 l98 0 -11 -29z m-297 -140 c0 -5 -7 -15 -16 -22 -14 -11 -15
-26 -11 -83 6 -64 4 -74 -21 -113 -15 -24 -29 -43 -32 -43 -8 1 -65 84 -65 95
1 13 128 175 138 175 4 0 7 -4 7 -9z m33 -358 c3 -16 9 -37 13 -48 4 -13 -5
-7 -23 15 -24 27 -28 38 -20 52 14 21 23 16 30 -19z"/>
<path d="M1763 1462 c-46 -30 -113 -122 -113 -157 0 -25 41 -58 62 -50 42 17
76 121 54 168 -6 12 -4 17 8 17 9 0 16 -8 17 -17 1 -10 5 0 10 21 5 21 8 40 6
42 -1 2 -21 -9 -44 -24z m-3 -98 c0 -32 -27 -84 -43 -84 -44 1 -44 38 0 90 28
34 43 31 43 -6z"/>
<path d="M1183 1423 c-13 -3 -23 -7 -23 -11 0 -4 17 -38 38 -77 l38 -70 95 -1
94 0 -85 3 -85 4 -38 69 -37 70 107 0 108 -1 28 -54 27 -55 -22 0 c-13 0 -30
-5 -38 -10 -11 -8 -3 -10 30 -10 25 0 78 1 119 0 41 0 77 2 79 5 3 3 -30 5
-74 6 l-79 0 -33 69 -33 69 -97 -1 c-53 -1 -107 -3 -119 -5z"/>
<path d="M2290 1289 c0 -78 -44 -181 -116 -276 -42 -55 -74 -156 -79 -250 -2
-40 -9 -89 -15 -110 -6 -21 -10 -60 -8 -88 3 -48 4 -50 35 -53 26 -3 32 0 27
12 -16 42 8 88 90 176 92 98 143 184 152 257 l6 48 -78 -77 c-81 -80 -95 -115
-24 -58 23 18 43 30 45 28 12 -11 -43 -92 -113 -168 -43 -47 -83 -93 -88 -103
-8 -13 -10 -3 -8 40 1 32 2 61 3 64 1 4 24 37 52 75 107 145 155 280 146 411
-6 80 -26 135 -27 72z m-20 -244 c0 -5 -5 -3 -11 5 -8 11 -9 8 -5 -15 4 -19 3
-25 -2 -17 -7 11 -10 9 -15 -7 -3 -12 -1 -19 4 -15 6 3 3 -11 -6 -33 -9 -21
-21 -48 -25 -59 -8 -20 -68 -59 -77 -50 -6 6 56 130 89 177 30 41 48 47 48 14z"/>
<path d="M1798 1233 c-2 -19 3 -44 13 -65 22 -39 22 -31 5 42 -12 51 -13 53
-18 23z"/>
<path d="M520 1231 c0 -7 10 -35 21 -62 16 -36 38 -62 85 -99 35 -28 64 -55
64 -61 0 -5 -6 -7 -12 -3 -7 4 -2 -5 12 -21 l25 -28 -52 28 c-59 31 -111 81
-115 111 -2 11 -14 34 -26 51 -12 17 -26 41 -31 54 -9 22 -10 21 -10 -11 -1
-78 82 -191 172 -233 20 -10 48 -39 72 -76 21 -34 41 -61 43 -61 2 0 3 28 0
63 -3 59 -8 68 -75 162 -72 101 -173 210 -173 186z"/>
<path d="M2116 1142 c-33 -126 -99 -221 -144 -210 -10 3 -38 2 -62 -2 -42 -7
-40 -8 26 -9 65 -1 74 1 99 27 15 15 38 50 50 77 26 57 60 173 53 180 -2 2
-12 -26 -22 -63z"/>
<path d="M1770 770 c0 -71 4 -119 9 -116 5 4 12 0 14 -6 3 -7 7 33 8 90 1 56
3 112 3 124 1 14 -6 24 -16 26 -16 3 -18 -8 -18 -118z"/>
<path d="M1801 611 c-1 -8 10 -29 24 -46 13 -18 21 -35 18 -39 -4 -3 -30 -6
-60 -6 -55 0 -66 11 -40 40 6 7 -2 3 -20 -9 -18 -12 -35 -26 -38 -31 -4 -6 38
-10 107 -10 l113 0 -43 37 c-24 20 -48 46 -52 57 -5 12 -9 15 -9 7z"/>
<path d="M1567 207 c-17 -17 -17 -20 -2 -43 24 -38 65 -25 65 21 0 31 -40 45
-63 22z"/>
<path d="M1667 213 c-10 -10 -8 -63 2 -63 5 0 12 8 14 18 4 16 5 16 6 0 1 -23
18 -23 24 0 4 16 5 16 6 0 1 -12 9 -18 24 -18 17 0 19 2 7 10 -8 5 -12 12 -8
15 3 3 13 -1 21 -10 9 -8 22 -15 30 -15 9 0 18 -6 21 -12 5 -10 7 -10 12 0 3
7 24 12 49 12 35 0 43 3 41 18 -1 23 -21 42 -42 42 -17 0 -17 -1 0 -13 11 -8
16 -20 13 -28 -4 -10 -6 -8 -7 6 -1 20 -1 20 -10 0 -8 -18 -9 -18 -9 -2 -1 15
-9 18 -48 17 -107 -4 -133 -1 -127 15 6 15 -7 21 -19 8z"/>
<path d="M1100 200 c0 -5 -7 -10 -15 -10 -15 0 -22 -39 -7 -41 41 -4 75 -3 79
3 2 5 -3 8 -11 8 -9 0 -16 5 -16 11 0 6 7 9 15 5 8 -3 15 -1 15 4 0 14 -22 12
-44 -5 -22 -17 -36 -19 -36 -6 0 5 9 11 20 14 20 5 28 27 10 27 -5 0 -10 -4
-10 -10z"/>
<path d="M1400 200 c0 -5 -7 -10 -15 -10 -8 0 -15 -9 -15 -20 0 -13 7 -20 20
-20 16 0 20 7 20 30 0 17 -2 30 -5 30 -3 0 -5 -4 -5 -10z"/>
<path d="M1441 183 c-1 -26 3 -33 18 -33 11 0 22 8 25 18 3 9 4 5 2 -10 -2
-16 1 -28 6 -28 10 0 31 51 23 58 -3 3 -5 -1 -5 -8 0 -11 -3 -11 -12 -2 -7 7
-20 12 -29 12 -10 0 -20 6 -22 13 -3 6 -6 -3 -6 -20z"/>
<path d="M1231 185 c-16 -21 -22 -35 -14 -34 4 1 17 1 28 -1 20 -1 20 -1 0
-10 -13 -6 -15 -9 -5 -9 21 -1 48 22 43 37 -3 6 0 12 5 12 6 0 13 -8 16 -17 3
-11 4 -9 3 6 -2 20 -8 24 -35 25 -19 1 -37 -3 -41 -9z"/>
<path d="M1320 171 c0 -21 26 -36 35 -21 4 6 -1 10 -9 10 -9 0 -16 5 -16 11 0
6 7 9 15 5 8 -3 15 -1 15 4 0 6 -9 10 -20 10 -13 0 -20 -7 -20 -19z"/>
</g>
</svg>
