<?xml version="1.0" standalone="no"?>
<!DOCTYPE svg PUBLIC "-//W3C//DTD SVG 20010904//EN"
 "http://www.w3.org/TR/2001/REC-SVG-20010904/DTD/svg10.dtd">
<svg version="1.0" xmlns="http://www.w3.org/2000/svg"
 width="1024.000000pt" height="1024.000000pt" viewBox="0 0 1024.000000 1024.000000"
 preserveAspectRatio="xMidYMid meet">

<g transform="translate(0.000000,1024.000000) scale(0.100000,-0.100000)"
fill="#000000" stroke="none">
<path d="M2590 9920 c-89 -16 -152 -53 -200 -116 -24 -32 -30 -50 -30 -94 l-2
-55 -12 33 c-14 41 -65 74 -155 102 -196 62 -431 -24 -504 -184 -13 -28 -36
-94 -51 -147 l-28 -96 -186 -175 c-103 -96 -241 -224 -307 -284 -288 -261
-355 -322 -610 -559 -148 -137 -307 -289 -354 -338 -46 -48 -99 -97 -118 -108
l-33 -21 0 -113 0 -113 82 49 c44 27 85 49 89 49 13 0 313 163 349 189 l35 26
-20 -26 c-11 -14 -121 -123 -245 -243 -320 -310 -290 -269 -290 -393 l0 -104
29 20 c16 12 100 92 188 179 87 87 194 192 238 232 44 40 159 149 255 241 96
92 241 227 322 300 222 203 570 523 679 625 53 51 126 108 164 129 37 21 87
55 111 76 24 20 53 40 64 44 22 7 50 -9 50 -28 0 -6 -24 -60 -54 -121 -65
-135 -96 -259 -101 -405 l-4 -106 9 95 c11 119 42 261 74 341 32 81 109 206
164 269 46 53 160 140 183 140 8 0 0 -8 -16 -19 -53 -32 -163 -148 -211 -221
-103 -160 -151 -303 -161 -483 -4 -71 -10 -111 -19 -118 -8 -6 -14 -21 -14
-33 0 -26 25 -64 36 -54 4 4 1 14 -6 23 -18 21 6 54 67 93 64 41 330 129 413
137 36 4 96 13 134 21 77 17 312 20 363 5 17 -5 34 -7 36 -5 8 8 232 -24 316
-46 133 -34 231 -88 231 -127 0 -8 -17 -31 -37 -51 -31 -29 -33 -32 -8 -15 71
49 79 72 65 189 -31 275 -235 599 -450 713 -33 18 -64 40 -69 50 -5 9 -17 76
-26 147 -39 311 -59 386 -109 420 -78 50 -227 81 -316 64z m53 -149 c-2 -9 0
-42 5 -74 5 -31 5 -57 1 -57 -4 0 -9 12 -11 28 -2 15 -8 26 -15 25 -9 -2 -13
14 -13 55 0 32 3 62 7 65 9 10 31 -24 26 -42z m-517 -42 c73 -13 179 -63 199
-92 8 -13 17 -55 21 -94 l7 -70 -174 -89 c-96 -49 -177 -90 -180 -92 -3 -1
-11 15 -17 37 -25 83 -81 116 -216 128 l-68 6 6 40 c10 60 55 136 100 169 76
55 206 78 322 57z m-455 -322 c-10 -9 -11 -8 -5 6 3 10 9 15 12 12 3 -3 0 -11
-7 -18z m689 -85 l0 -67 -71 -44 -71 -44 -82 5 c-103 7 -121 16 -120 59 1 31
3 33 55 45 30 7 101 35 159 63 58 27 111 50 118 50 8 1 12 -19 12 -67z m-610
-47 c0 -13 -5 -27 -12 -31 -6 -4 -8 -3 -4 4 3 6 -3 17 -15 26 -14 9 -19 21
-15 31 9 24 46 1 46 -30z m-106 -152 c3 -16 8 -53 12 -84 l6 -56 -44 -40 c-23
-22 -80 -74 -125 -114 -252 -229 -391 -357 -508 -470 -110 -105 -141 -129
-195 -151 -36 -15 -114 -50 -175 -78 -119 -57 -227 -102 -231 -97 -2 2 40 37
93 77 53 41 144 120 202 175 98 93 207 190 434 388 49 43 162 146 251 231 226
214 260 246 268 246 3 0 9 -12 12 -27z m1186 -386 c0 -7 14 -23 30 -35 17 -13
30 -29 30 -37 0 -8 5 -15 11 -15 6 0 17 -7 25 -15 14 -13 0 -15 -124 -15 -77
0 -161 -3 -188 -6 l-49 -6 35 31 c19 17 45 34 58 37 12 3 22 11 22 17 0 6 3 8
6 4 6 -5 15 0 49 30 8 8 25 10 44 7 20 -4 31 -2 31 5 0 6 5 11 10 11 6 0 10
-6 10 -13z"/>
<path d="M6115 9700 c-86 -7 -180 -27 -205 -42 -12 -7 -10 -8 5 -4 45 10 232
15 265 7 34 -9 33 -9 -20 -10 -49 -1 -191 -22 -336 -50 -105 -20 -246 -78
-419 -169 -114 -61 -167 -93 -162 -99 3 -2 42 7 87 21 83 27 281 61 303 53 7
-2 -15 -10 -48 -17 -64 -13 -175 -52 -290 -102 -165 -71 -352 -206 -488 -354
-43 -46 -75 -84 -72 -84 4 0 42 19 84 41 l76 42 -40 -34 c-22 -19 -51 -45 -64
-58 -14 -13 -68 -56 -120 -95 -137 -101 -327 -293 -386 -390 -102 -165 -155
-341 -155 -511 0 -148 33 -253 94 -304 14 -11 16 -11 16 2 0 9 -8 24 -18 34
-33 32 -50 95 -57 213 -5 86 -3 133 8 185 23 110 140 332 232 440 l25 30 -6
-30 c-4 -16 -20 -59 -35 -94 -33 -73 -32 -95 1 -29 77 153 132 223 229 297
107 81 116 84 42 15 -79 -73 -169 -208 -211 -314 -41 -107 -104 -346 -130
-495 -14 -77 -23 -182 -26 -295 -3 -96 -7 -185 -9 -196 -3 -14 -22 -29 -57
-45 -49 -22 -66 -24 -203 -23 -82 0 -229 6 -325 13 -96 8 -215 15 -265 16 -49
1 -193 7 -320 14 -126 6 -387 15 -580 21 -590 17 -909 35 -900 50 3 5 -4 6
-15 3 -11 -3 -78 0 -148 6 -70 7 -217 16 -327 22 -110 5 -245 14 -300 20 -55
5 -116 10 -135 11 -44 0 -165 -53 -179 -80 -17 -32 -13 -99 13 -228 13 -66 34
-186 46 -269 12 -82 26 -167 31 -187 5 -21 21 -118 34 -215 14 -98 32 -214 40
-258 8 -44 26 -159 40 -255 14 -96 32 -209 40 -250 8 -41 24 -138 35 -215 11
-77 34 -223 50 -325 16 -102 38 -248 49 -325 11 -77 30 -194 41 -260 11 -66
36 -219 55 -340 41 -255 49 -284 84 -324 22 -25 36 -30 89 -35 l62 -6 0 35 c0
33 -2 35 -36 35 l-35 0 7 48 c10 69 19 82 59 82 33 0 35 2 35 34 0 18 3 48 6
65 7 31 6 31 -22 21 -52 -20 -94 6 -62 38 9 9 8 12 -8 14 -67 5 216 16 453 17
156 0 518 6 805 11 288 6 885 15 1328 20 443 5 816 12 830 16 l26 6 12 -109
c7 -60 12 -132 12 -161 0 -92 109 -84 -1192 -87 -629 -2 -1172 -6 -1208 -10
-107 -10 -112 -12 -108 -43 2 -22 9 -28 34 -30 l32 -3 -5 -197 c-5 -256 -5
-258 -45 -266 -17 -3 -33 -5 -34 -3 -2 1 3 47 11 100 8 53 16 100 16 105 1 4
-2 17 -6 30 -6 18 -13 22 -29 18 -119 -34 -516 -40 -728 -11 -76 10 -140 16
-144 12 -3 -3 -1 -50 5 -103 5 -54 9 -99 8 -101 -2 -1 -45 9 -96 22 -138 36
-231 45 -474 45 -125 0 -226 4 -237 10 -18 10 -40 65 -58 150 -6 25 -19 70
-30 100 -41 116 -46 107 89 173 126 62 163 95 175 155 5 25 3 32 -9 32 -9 0
-19 5 -23 12 -5 8 -2 9 9 5 10 -3 17 -2 17 2 0 24 -137 30 -173 7 -12 -7 -44
-16 -72 -20 -27 -3 -59 -7 -69 -8 -24 -4 -44 59 -81 247 -14 72 -33 156 -41
189 -8 32 -28 122 -44 200 -16 77 -54 260 -84 406 l-55 265 3 -505 2 -505 36
-158 c21 -86 48 -217 62 -290 14 -72 43 -191 65 -262 21 -72 41 -146 43 -164
l3 -34 -85 -18 c-47 -10 -95 -21 -108 -24 l-22 -5 2 -228 3 -227 70 -8 c96
-11 961 -14 1118 -3 l128 8 -6 64 -7 64 28 -14 c85 -42 466 -54 639 -22 49 10
96 22 103 28 13 11 46 9 247 -16 66 -8 161 -17 210 -21 107 -8 502 10 665 30
63 8 172 19 242 25 143 13 201 36 268 105 33 35 34 36 10 31 -22 -5 -254 -15
-700 -31 -84 -3 -126 -1 -110 4 22 8 23 9 4 10 -30 1 -34 9 -17 42 9 17 23 30
36 31 31 2 39 3 71 17 15 6 33 11 40 10 29 -4 60 2 49 9 -6 4 36 7 95 6 59 0
152 2 207 6 96 6 93 7 -65 9 -310 4 -370 7 -383 20 -9 9 -12 69 -12 226 0 117
3 216 7 220 7 7 115 10 993 26 572 10 613 12 652 30 43 21 65 46 76 89 7 28
-9 190 -53 525 -16 121 -31 239 -32 263 -3 41 4 53 18 31 14 -23 91 -48 169
-55 61 -5 96 -15 146 -40 36 -18 71 -39 78 -48 8 -9 20 -16 29 -16 24 0 197
-176 227 -232 19 -34 29 -71 33 -114 4 -55 1 -71 -23 -119 -44 -91 -140 -146
-215 -125 l-33 9 22 -23 c13 -13 49 -38 81 -55 86 -46 186 -43 311 11 46 19
46 20 73 106 14 48 40 148 56 222 17 74 41 171 55 215 13 44 40 145 60 225 20
80 59 202 86 271 43 110 56 133 98 172 26 25 61 52 77 60 16 8 38 25 49 37 22
25 75 64 75 56 0 -3 -23 -31 -51 -63 -28 -32 -71 -91 -96 -131 -25 -40 -48
-71 -51 -68 -2 3 13 34 35 68 58 93 61 109 10 60 -94 -92 -134 -195 -253 -660
-55 -214 -164 -679 -164 -698 0 -4 -11 -4 -24 -2 -37 7 -44 -22 -12 -45 36
-26 32 -37 -13 -37 -27 0 -41 -5 -45 -16 -4 -12 -2 -15 9 -10 20 7 45 -3 45
-19 0 -21 -64 -45 -122 -45 l-53 -1 36 -19 c45 -24 103 -83 136 -138 21 -35
25 -52 21 -92 -4 -40 -2 -50 10 -50 11 0 13 -7 9 -27 -3 -17 0 -36 9 -47 13
-18 14 -16 14 27 0 26 -4 47 -8 47 -5 0 -8 18 -8 41 l1 41 90 33 c170 63 246
93 260 105 10 9 15 30 14 69 -2 54 -2 55 -9 16 -12 -64 -11 285 0 436 12 144
62 463 90 569 37 141 83 288 106 338 13 29 24 55 24 58 0 5 92 207 141 309 32
67 34 75 32 175 -1 64 2 97 7 85 7 -17 9 -17 9 -2 1 9 5 17 9 17 4 0 32 16 62
35 30 19 62 35 72 35 10 0 18 5 18 10 0 6 7 10 15 10 8 0 23 4 33 9 9 5 43 17
75 26 31 10 57 22 57 27 0 4 3 7 8 7 23 -4 32 4 33 29 2 40 16 -33 24 -129 l7
-76 -139 -274 c-134 -263 -163 -324 -232 -489 -65 -157 -136 -408 -160 -569
-22 -143 -25 -405 -7 -531 10 -63 19 -117 22 -119 2 -3 10 1 16 7 16 16 28 15
28 -2 0 -22 -73 -65 -154 -90 -75 -24 -77 -24 -89 -5 -6 10 -22 19 -34 19 -28
0 -28 -4 -4 -38 78 -112 162 -314 196 -472 24 -110 20 -105 61 -80 19 12 37
21 38 19 4 -5 36 -115 36 -124 0 -4 -15 -5 -33 -3 l-33 3 1 -135 0 -135 -117
2 c-76 1 -129 7 -152 17 -36 15 -36 16 -35 73 2 105 13 168 29 168 8 1 24 6
35 12 11 6 52 20 90 32 65 19 112 40 91 41 -9 0 -133 -35 -176 -50 -14 -4 -80
-11 -147 -14 -112 -5 -123 -3 -123 12 0 10 -9 34 -19 54 -11 19 -18 38 -15 40
2 3 -5 13 -16 23 -22 20 -23 18 -11 -41 8 -42 8 -42 -28 -53 -72 -21 -142 -31
-303 -41 -90 -6 -176 -12 -193 -14 -16 -3 -24 -2 -17 1 6 2 10 9 7 13 -3 5
-18 4 -33 -2 -47 -18 -92 -26 -98 -17 -3 5 -24 8 -47 8 l-42 -2 35 -6 c39 -8
28 -14 -42 -26 -21 -3 -38 -10 -38 -16 0 -10 -67 -7 -185 7 -53 6 -107 29
-190 78 -11 7 -47 23 -80 36 -33 13 -64 27 -70 31 -5 4 -31 10 -57 14 -53 8
-108 -6 -153 -40 -16 -12 -48 -30 -69 -40 -39 -19 -39 -19 -57 4 -10 12 -16
28 -13 35 3 7 34 37 69 66 66 54 80 78 27 44 -16 -11 -49 -36 -72 -57 -45 -42
-47 -60 -12 -106 l19 -24 93 32 c51 17 98 38 104 46 13 17 81 31 71 15 -4 -6
5 -10 22 -10 16 0 51 -14 78 -31 28 -18 87 -46 132 -63 46 -18 85 -35 88 -38
3 -3 -27 -9 -67 -13 -40 -3 -145 -20 -233 -36 -87 -16 -189 -29 -225 -30 l-65
-1 45 -9 c25 -5 51 -7 58 -4 6 2 12 0 12 -5 0 -6 -9 -10 -21 -10 -11 0 -17 -5
-14 -10 4 -6 3 -10 -2 -8 -4 1 -39 -4 -78 -11 -78 -15 -127 -10 -330 33 -66
13 -142 27 -170 31 -27 3 -95 17 -150 30 -55 13 -120 28 -145 34 l-45 10 55
-6 c30 -3 65 -9 78 -14 31 -12 89 -11 97 1 3 6 15 10 25 10 10 0 20 5 22 11 3
8 19 8 61 -1 31 -7 54 -17 51 -22 -3 -4 -14 -4 -24 2 -10 5 -27 10 -37 10 -10
0 4 -11 31 -25 27 -13 53 -22 58 -19 4 3 8 -1 8 -9 0 -17 42 -27 110 -27 28 0
50 -5 52 -12 3 -8 9 -8 24 0 16 10 17 11 2 12 -9 0 -20 5 -23 10 -9 14 131 3
189 -14 25 -8 48 -11 51 -8 14 14 -619 148 -755 159 -69 6 -77 9 -45 13 35 4
26 7 -65 23 -58 10 -156 30 -218 44 -62 14 -116 22 -120 19 -12 -12 -1 -78 15
-95 12 -11 18 -12 21 -3 5 15 52 15 107 1 22 -6 69 -16 105 -23 89 -19 112
-25 118 -31 9 -9 -15 -6 -136 16 -75 13 -137 19 -173 15 -36 -3 -60 -1 -67 6
-7 7 -13 39 -13 72 -1 58 -2 59 -9 21 -16 -80 15 -125 85 -125 15 0 41 -6 58
-14 54 -23 125 -39 154 -33 16 3 57 -1 93 -9 55 -11 58 -13 18 -9 -27 3 -60 7
-75 10 l-28 5 28 -11 c16 -6 24 -15 20 -22 -3 -7 -3 -9 2 -5 4 4 13 4 19 -1 6
-5 70 -16 141 -25 72 -10 179 -24 239 -33 59 -8 138 -17 175 -19 36 -2 113 -9
171 -17 58 -7 121 -10 140 -6 19 4 58 11 85 14 28 4 57 8 66 11 9 2 77 9 150
14 74 4 145 11 159 15 14 4 77 13 140 21 63 7 126 16 140 19 14 3 70 10 125
15 55 5 109 12 120 14 11 2 41 9 66 15 25 6 75 11 112 12 37 1 70 6 73 10 3 5
15 8 27 8 12 -1 60 6 107 15 47 9 108 16 135 16 60 1 135 20 160 40 17 14 18
13 12 -30 -7 -49 -50 -196 -72 -246 l-13 -31 -134 -6 c-73 -4 -218 -15 -323
-26 -178 -18 -278 -25 -780 -51 -110 -6 -247 -15 -305 -20 -58 -5 -161 -12
-230 -15 -69 -3 -204 -12 -300 -20 -96 -8 -281 -21 -410 -30 -129 -8 -271 -19
-315 -25 -61 -8 -103 -7 -180 4 -55 8 -172 22 -260 30 -88 9 -275 27 -415 41
-140 14 -338 32 -440 40 -102 8 -286 26 -410 40 -124 14 -322 34 -440 45 -118
11 -249 25 -290 30 -41 5 -123 14 -183 20 -59 6 -114 13 -122 16 -13 5 -15
-18 -15 -173 0 -171 1 -179 21 -192 17 -10 23 -10 29 -1 5 9 9 9 14 1 4 -6 12
-11 17 -11 6 0 8 4 4 10 -5 9 94 2 105 -7 16 -14 -36 -23 -107 -18 l-83 6 0
-36 0 -36 62 1 c92 2 590 -57 615 -73 8 -5 13 -3 13 5 0 9 3 9 8 2 9 -13 223
-34 237 -22 5 4 20 8 35 7 22 0 23 -1 5 -8 -13 -5 5 -8 47 -7 44 1 69 5 73 14
2 6 9 12 15 12 14 0 13 -27 -2 -33 -16 -6 39 -16 111 -21 40 -3 59 1 70 12 15
14 14 15 0 10 -23 -9 -122 11 -135 27 -8 11 -37 14 -125 12 -110 -2 -114 -1
-117 19 -2 13 -13 25 -25 28 -37 10 -50 7 -43 -9 5 -13 1 -13 -31 0 -39 16
-66 20 -44 6 8 -5 -4 -7 -33 -4 -37 5 -46 3 -46 -10 0 -13 -10 -12 -62 9 -34
13 -76 24 -94 24 -18 0 -35 6 -37 13 -4 9 -8 8 -17 -3 -8 -11 -13 -12 -16 -3
-3 7 -12 9 -20 6 -7 -3 -17 2 -20 11 -3 9 -17 16 -29 16 -13 0 -26 4 -29 9 -3
4 -17 6 -31 3 -15 -3 -25 0 -25 8 0 12 15 11 185 -10 44 -5 139 -14 210 -20
72 -6 249 -24 395 -40 146 -17 321 -35 390 -40 206 -18 409 -40 506 -55 50 -8
156 -19 235 -25 79 -6 178 -15 219 -20 88 -11 233 -24 240 -23 3 1 120 11 260
23 261 21 339 28 400 36 19 2 87 9 150 14 63 6 162 15 220 21 153 15 173 16
414 24 165 6 217 5 212 -3 -11 -18 -2 -15 66 22 158 86 380 138 839 196 329
42 916 53 1073 20 67 -14 103 -41 158 -124 23 -33 66 -87 96 -119 38 -39 50
-57 38 -57 -11 0 -14 -5 -10 -12 5 -8 2 -9 -9 -5 -20 7 -49 -2 -42 -13 3 -4
-5 -11 -18 -15 l-22 -7 25 -7 c20 -6 15 -8 -28 -13 -53 -5 -78 -17 -54 -25 6
-3 12 -12 12 -21 0 -14 -2 -14 -13 2 -15 20 -47 12 -47 -11 0 -13 -3 -13 -15
-3 -11 9 -15 9 -15 1 0 -8 -5 -9 -19 -1 -25 13 -34 13 -26 0 3 -5 -3 -18 -15
-30 -24 -24 -31 -26 -23 -5 5 14 2 14 -22 3 -24 -11 -29 -10 -47 12 -11 14
-17 20 -14 14 7 -14 -28 -47 -39 -37 -5 5 -3 0 4 -9 7 -10 11 -25 7 -33 -8
-22 -36 -19 -36 4 0 17 -3 18 -32 8 -18 -7 -39 -18 -46 -25 -17 -16 -28 -16
-14 1 8 9 0 11 -36 8 -26 -2 -50 -8 -54 -15 -6 -8 -10 -8 -15 0 -12 16 -56 12
-74 -8 -16 -18 -17 -18 -22 2 -5 21 -47 29 -47 9 0 -5 4 -7 10 -4 6 4 7 -1 3
-11 -5 -14 -8 -15 -17 -3 -15 19 -59 18 -68 -1 -5 -11 -7 -9 -7 7 -1 17 -5 21
-18 16 -10 -4 -21 -11 -25 -17 -5 -7 -8 -7 -8 2 0 14 -36 16 -45 2 -3 -5 -11
-10 -17 -10 -7 0 -6 6 2 15 11 13 8 13 -29 0 -22 -8 -41 -11 -41 -6 0 4 12 12
28 17 23 8 20 10 -26 8 -29 -1 -58 -6 -65 -13 -14 -14 -28 -14 -25 1 5 20 -30
21 -35 1 -2 -10 -4 -6 -2 9 1 15 -2 25 -7 22 -4 -3 -8 -11 -8 -19 0 -10 -12
-13 -47 -9 -29 2 -49 0 -54 -7 -4 -7 -23 -13 -42 -14 -27 -3 -34 0 -30 11 3 8
0 14 -5 14 -6 0 -14 -9 -17 -20 -6 -20 -25 -28 -25 -10 0 6 -9 6 -26 0 -31
-12 -44 -13 -26 -1 10 6 9 11 -4 22 -16 12 -17 12 -9 -1 6 -12 5 -13 -5 -3
-11 10 -16 9 -25 -4 -7 -9 -21 -18 -31 -21 -62 -13 -74 -13 -74 -3 0 6 -4 11
-10 11 -5 0 -10 -6 -10 -13 0 -8 -7 -14 -15 -14 -11 0 -12 4 -4 13 7 8 6 14
-2 20 -8 4 -9 3 -5 -4 4 -7 3 -12 -3 -12 -5 0 -11 3 -14 8 -2 4 -2 1 0 -7 3
-14 -10 -12 -51 5 -16 6 -18 4 -13 -9 3 -9 1 -19 -5 -23 -6 -4 -8 -3 -5 3 4 6
-1 13 -11 16 -9 2 -26 8 -36 13 -14 5 -17 4 -12 -4 5 -8 -2 -12 -21 -12 -18 0
-24 3 -15 8 8 6 2 9 -17 9 -16 0 -29 -3 -28 -6 6 -18 -87 -7 -113 13 -13 9
-13 9 -2 -5 10 -13 9 -19 -3 -29 -12 -10 -15 -10 -15 3 0 10 -6 13 -20 10 -14
-4 -20 0 -20 12 0 15 -3 15 -15 5 -13 -10 -13 -15 -3 -21 16 -10 10 -15 -27
-23 -22 -5 -26 -4 -15 4 13 9 13 11 1 19 -12 8 -12 12 -2 25 17 21 4 21 -16 0
-9 -8 -22 -13 -29 -10 -8 3 -11 0 -7 -10 4 -11 9 -12 18 -4 9 8 15 8 20 0 14
-22 -27 -22 -52 1 -18 17 -27 20 -30 12 -3 -7 -9 -13 -14 -13 -6 0 -7 6 -3 13
6 9 5 9 -8 0 -18 -16 -28 -7 -28 24 0 26 -3 27 -32 12 -16 -9 -19 -8 -15 3 2
7 -2 21 -11 31 -9 9 -10 17 -4 17 6 0 12 12 14 28 2 18 9 27 19 26 11 -1 15 5
12 15 -5 21 49 73 117 110 30 17 51 31 45 31 -27 0 -128 -71 -191 -134 -122
-123 -240 -303 -518 -791 -104 -181 -200 -347 -214 -368 l-26 -38 -12 23 c-11
20 -13 21 -19 5 -14 -34 7 -73 70 -134 36 -34 109 -92 164 -128 l100 -66 -57
-80 c-70 -98 -70 -97 -82 -133 -9 -24 -14 -27 -38 -22 -62 14 -190 88 -245
142 -48 47 -57 61 -57 91 0 19 5 44 11 56 10 21 10 21 -5 3 -9 -11 -16 -28
-16 -38 0 -11 -5 -15 -15 -12 -19 8 -19 -4 0 -36 8 -14 15 -41 15 -60 1 -40
33 -69 193 -178 49 -33 95 -69 103 -81 9 -12 16 -44 17 -71 1 -27 5 -50 8 -50
3 0 26 36 50 80 l44 79 50 -6 c45 -5 55 -2 83 21 38 33 195 264 189 280 -3 6
6 25 20 41 13 17 67 83 120 149 52 65 98 114 103 110 4 -5 13 -67 20 -139 6
-71 32 -250 56 -398 24 -147 44 -270 44 -272 0 -3 171 -5 380 -5 l380 0 1 73
c1 84 17 66 18 -20 1 -48 3 -53 24 -53 l23 0 -23 212 c-12 117 -29 263 -38
323 -17 126 -19 165 -6 165 5 0 105 -16 223 -35 117 -19 287 -41 378 -50 263
-24 248 -20 256 -63 11 -63 35 -102 78 -127 38 -22 178 -55 306 -73 61 -8 73
-25 49 -69 -12 -22 -11 -26 11 -43 23 -17 24 -21 12 -52 -14 -41 -16 -85 -2
-93 5 -3 7 -25 3 -50 l-6 -45 187 0 186 0 0 43 c0 24 4 47 10 53 6 6 6 30 1
64 -7 45 -6 58 7 73 13 15 13 22 2 57 -8 25 -10 44 -4 49 5 4 49 13 97 19 113
14 239 49 280 76 41 27 67 79 67 133 0 52 10 58 115 67 73 7 165 20 520 76
136 22 355 79 413 109 129 66 176 175 175 401 0 93 -4 126 -22 171 -57 148
-155 181 -831 279 -195 28 -356 53 -357 54 -3 2 65 168 71 173 1 2 82 -8 178
-22 328 -45 613 -57 844 -34 310 31 410 137 418 445 l3 129 49 3 c27 1 94 7
149 13 211 21 315 28 461 32 84 3 156 7 161 10 5 3 45 8 88 12 44 3 132 10
195 16 63 5 138 10 165 10 92 0 105 3 105 22 0 25 -72 26 -305 3 -78 -7 -201
-16 -275 -19 -126 -5 -130 -5 -55 5 44 6 110 11 148 12 69 1 76 3 55 24 -9 9
-9 12 0 12 7 0 12 -4 12 -10 0 -5 6 -10 13 -10 11 0 12 11 6 47 -12 75 -11 86
7 79 12 -5 15 -2 10 10 -5 14 -4 15 8 5 8 -7 20 -10 26 -6 5 3 10 1 10 -4 0
-6 7 -11 15 -11 8 0 15 -4 15 -10 0 -13 -27 -13 -32 1 -2 7 -11 7 -28 0 l-25
-10 28 0 c15 -1 27 -5 27 -10 0 -5 8 -7 19 -4 11 3 21 -2 24 -11 4 -10 18 -16
35 -16 25 0 29 -3 25 -23 -4 -22 -3 -22 99 -20 57 1 111 2 121 2 15 1 17 15
17 142 l0 141 -97 -7 c-54 -4 -107 -9 -118 -11 -31 -7 -356 -32 -620 -49 -238
-15 -486 -34 -508 -38 -7 -1 -11 7 -10 18 19 193 95 711 141 960 l39 210 289
-4 289 -3 75 49 c103 68 204 179 259 285 44 84 44 86 28 112 -10 14 -34 33
-55 42 -47 20 -166 34 -202 24 -16 -5 -31 -6 -33 -3 -3 2 12 41 33 86 21 45
43 107 49 137 14 74 20 170 9 170 -4 0 -8 -15 -8 -34 0 -18 -4 -46 -10 -62 -5
-16 -11 -54 -13 -84 -4 -56 -32 -130 -49 -130 -5 0 -7 -4 -4 -8 9 -15 -57 -77
-104 -97 -107 -45 -182 -105 -257 -204 -17 -22 -16 -10 3 28 13 27 14 39 4 74
-38 136 -33 178 34 319 28 60 30 68 12 46 -24 -27 -86 -185 -86 -219 0 -10 -4
-19 -10 -19 -5 0 -10 -5 -10 -11 0 -5 5 -7 12 -3 7 5 9 2 6 -8 -4 -8 2 -42 13
-74 19 -57 18 -121 -2 -108 -5 3 -9 -7 -9 -21 0 -30 -16 -65 -30 -65 -4 0 -33
36 -64 79 -31 44 -62 83 -70 88 -11 7 -10 25 10 118 12 61 23 116 23 124 1 11
4 11 16 1 9 -7 19 -10 23 -6 4 4 -2 14 -13 22 -19 14 -19 16 8 152 15 76 25
147 22 157 -5 14 -4 16 2 7 7 -9 13 -2 21 26 7 22 12 47 12 57 0 12 5 15 16
11 15 -6 15 -4 1 18 -14 20 -14 34 -6 91 10 59 8 132 -4 190 -3 11 -5 24 -6
29 0 5 -4 6 -8 2 -5 -4 -7 -35 -6 -69 0 -34 -1 -48 -3 -32 -3 17 -10 55 -17
85 -6 30 -12 60 -12 65 -1 16 -88 132 -109 145 -14 9 -17 9 -11 -2 3 -7 -3 -2
-15 12 -15 17 -33 25 -60 26 -20 1 -44 5 -51 9 -8 5 -5 -2 5 -14 17 -18 17
-21 3 -15 -12 4 -17 1 -18 -12 0 -12 -3 -14 -6 -6 -4 10 -8 10 -18 2 -11 -9
-11 -18 -4 -38 19 -48 29 -135 18 -148 -7 -8 -7 -14 1 -19 5 -3 10 -11 10 -16
0 -6 -4 -7 -10 -4 -5 3 -7 0 -5 -7 3 -8 1 -32 -4 -53 -8 -34 -9 -26 -10 56 -1
60 -7 116 -18 148 -20 64 -34 67 -18 4 23 -88 -12 -394 -49 -428 -6 -5 -11
-23 -12 -40 -2 -56 -44 -260 -74 -355 -34 -105 -82 -309 -106 -440 -17 -94
-92 -436 -101 -460 -4 -11 -8 -8 -12 10 -4 14 -11 25 -16 25 -6 0 -17 4 -25
10 -13 8 -13 7 0 -10 14 -17 13 -18 -4 -12 -12 5 -23 3 -28 -5 -14 -23 -9 -33
7 -12 15 19 16 19 13 -1 -2 -11 3 -20 10 -21 6 -1 17 -2 22 -3 6 0 10 -9 10
-18 0 -15 -2 -14 -15 3 -8 11 -15 14 -15 7 0 -15 -19 -13 -38 5 -7 6 -19 12
-25 12 -8 0 -7 -4 2 -9 18 -12 6 -45 -14 -37 -8 3 -15 1 -15 -4 0 -10 6 -12
53 -13 15 -1 27 -5 27 -9 0 -7 -40 -13 -62 -9 -5 0 -8 -4 -8 -9 0 -6 7 -10 15
-10 18 0 20 -16 3 -23 -10 -4 -10 -6 0 -6 6 -1 12 -5 12 -10 0 -5 -6 -9 -12
-8 -34 1 -48 -4 -48 -18 0 -8 -4 -15 -10 -15 -5 0 -10 6 -10 13 0 8 -4 7 -10
-3 -14 -22 -12 -28 13 -33 22 -4 22 -4 -2 -6 -15 -1 -21 -6 -18 -14 3 -8 1
-20 -4 -28 -6 -9 -9 0 -9 29 0 55 -14 55 -18 -1 -1 -23 -7 -44 -12 -45 -6 -2
-10 -11 -10 -20 -1 -12 -5 -9 -15 9 -14 27 -10 73 7 63 5 -3 6 -14 3 -25 -4
-11 -2 -19 4 -19 6 0 11 15 11 33 0 27 -4 32 -25 33 -22 2 -25 -1 -19 -19 5
-15 3 -19 -9 -14 -12 5 -13 1 -4 -24 6 -16 15 -29 19 -29 4 0 8 -4 8 -10 0
-18 -18 -10 -25 10 -4 11 -11 18 -16 15 -5 -4 -5 -14 2 -27 8 -15 8 -27 0 -45
-6 -13 -9 -29 -6 -34 4 -5 1 -9 -4 -9 -6 0 -10 11 -9 25 1 14 6 25 10 25 4 0
8 8 8 18 -1 16 -2 16 -14 -1 -13 -17 -15 -17 -40 10 -14 15 -26 22 -26 15 0
-15 36 -52 44 -44 3 3 6 1 6 -5 0 -24 -16 -21 -41 7 -29 31 -59 40 -59 16 0
-7 7 -19 15 -26 9 -8 15 -8 15 -2 0 6 -6 12 -12 15 -7 2 -9 8 -5 13 8 8 47
-29 47 -45 0 -4 -18 -7 -40 -7 -33 1 -39 4 -34 19 3 9 1 17 -5 17 -5 0 -13 -9
-16 -20 -3 -11 -11 -20 -17 -20 -6 0 -8 3 -5 6 3 4 1 16 -4 27 -9 16 -13 17
-21 6 -7 -11 -11 -11 -15 -1 -7 17 -20 15 -20 -3 0 -8 3 -12 6 -10 12 7 4 -46
-8 -58 -10 -9 -11 -6 -5 17 5 19 2 31 -7 37 -19 12 -42 11 -34 -1 3 -5 2 -10
-4 -10 -5 0 -11 6 -14 13 -3 9 -7 9 -20 -2 -10 -7 -17 -9 -17 -4 0 5 -15 9
-34 9 -22 -1 -32 -5 -29 -13 3 -6 12 -9 21 -6 14 4 14 3 3 -5 -12 -9 -12 -13
-2 -26 17 -20 4 -21 -15 -1 -9 8 -13 15 -9 15 3 0 -2 15 -12 33 -13 24 -18 28
-21 14 -2 -9 -8 -17 -13 -17 -6 0 -7 5 -4 10 8 13 -1 13 -27 -1 -17 -9 -19 -8
-16 8 2 11 11 17 23 15 17 -3 16 0 -5 14 -14 10 -27 19 -29 20 -2 2 2 12 10
21 12 16 12 17 -1 7 -19 -14 -60 -16 -60 -3 0 6 -4 7 -10 4 -5 -3 -10 -1 -10
4 0 6 -4 11 -10 11 -18 0 -11 -18 10 -25 11 -3 20 -12 20 -19 0 -20 27 -40 35
-26 8 13 25 13 25 0 0 -5 -7 -10 -16 -10 -14 0 -14 -3 -4 -15 18 -22 5 -31
-15 -11 -9 9 -13 16 -8 16 4 0 1 4 -7 10 -9 6 -17 5 -21 -2 -4 -7 -9 -7 -13 1
-4 6 -2 11 3 11 6 0 11 5 11 10 0 19 -15 9 -33 -22 -14 -25 -15 -33 -5 -39 10
-7 9 -9 -4 -9 -16 0 -23 11 -19 33 1 5 -3 6 -9 2 -6 -3 -8 -10 -5 -15 3 -5 1
-11 -5 -15 -16 -10 -24 23 -10 40 19 22 -3 18 -28 -6 -12 -11 -27 -17 -33 -13
-8 4 -7 9 2 15 7 4 11 11 7 14 -12 12 -46 -32 -37 -46 6 -10 9 -11 9 -1 0 16
16 16 23 -1 3 -8 -3 -14 -15 -14 -25 -2 -36 -12 -23 -21 6 -4 11 -13 13 -21 2
-8 -11 0 -29 17 -27 26 -34 29 -45 17 -16 -16 -18 -35 -4 -35 5 0 9 3 7 8 -1
4 1 8 6 10 16 5 25 1 31 -14 4 -10 2 -13 -6 -8 -6 4 -17 -1 -25 -11 -7 -11
-13 -13 -13 -7 0 7 -7 12 -15 12 -9 0 -12 -6 -9 -15 5 -11 2 -13 -12 -8 -14 5
-16 3 -11 -11 4 -10 3 -15 -3 -11 -6 3 -10 13 -10 22 0 13 -2 13 -17 2 -13
-11 -17 -11 -20 -1 -3 6 -12 12 -20 12 -9 0 -13 6 -9 15 3 8 2 15 -3 15 -15 0
-40 84 -60 205 -21 125 -31 295 -19 295 5 0 8 -4 8 -10 0 -5 12 -10 28 -9 24
0 25 1 7 10 -15 7 -10 8 20 5 296 -35 382 -32 477 19 34 18 64 37 66 43 1 5
-26 11 -65 14 -52 3 -76 9 -100 27 -18 13 -30 28 -27 33 3 4 -5 9 -18 9 -17 1
-18 3 -5 6 9 2 17 9 17 14 0 6 -10 7 -22 4 -23 -7 -23 -7 -3 8 20 16 19 16 -4
10 -16 -4 -22 -2 -18 5 4 5 1 13 -5 15 -9 4 -9 8 -3 14 24 20 12 49 -18 44
-10 -2 -2 44 20 112 19 62 107 160 123 137 9 -13 10 -12 8 4 -2 16 17 29 108
71 198 91 251 130 310 226 41 69 45 68 114 -19 62 -78 98 -96 177 -89 80 6
111 27 40 27 -26 0 -65 7 -87 16 -33 13 -40 21 -40 43 0 15 -9 68 -20 118 -11
49 -27 137 -35 193 -9 57 -20 109 -26 116 -7 8 -1 13 24 18 42 8 134 88 177
155 81 127 88 312 19 526 -17 53 -28 103 -25 111 3 8 1 14 -5 14 -6 0 -7 5 -3
11 5 8 9 8 14 -1 18 -29 116 52 179 150 59 91 75 152 75 290 1 104 -2 124 -32
216 -19 56 -48 124 -65 152 -76 119 -208 309 -231 331 -29 27 -34 43 -11 35
37 -14 8 20 -73 90 -110 92 -155 143 -148 165 3 9 15 43 27 76 32 91 49 182
49 271 0 162 -58 381 -151 566 -33 66 -74 157 -90 201 -52 139 -144 319 -205
398 -33 42 -87 113 -122 157 -74 96 -122 138 -225 197 -118 67 -178 86 -296
93 l-104 7 27 32 c94 112 316 100 393 -22 33 -53 48 -57 39 -13 -27 134 -207
217 -352 164 -27 -10 -63 -29 -81 -42 l-32 -24 -63 82 c-80 106 -136 159 -206
196 -134 71 -418 111 -647 92z m299 -39 c13 -6 27 -14 31 -20 5 -9 -21 0 -95
33 -22 9 35 -2 64 -13z m-1507 -876 c-32 -30 -81 -83 -109 -117 -29 -35 -75
-88 -103 -119 -57 -62 -128 -175 -222 -354 -61 -115 -79 -119 -24 -5 115 235
142 277 263 411 43 48 78 91 78 96 0 13 154 142 170 142 3 0 -21 -24 -53 -54z
m828 -5 c-7 -12 -99 -60 -114 -60 -17 0 34 44 65 56 38 15 57 17 49 4z m1 -52
c4 -6 3 -9 -2 -5 -8 4 -42 -19 -131 -93 -22 -18 -37 -11 -19 9 15 17 134 101
142 101 2 0 6 -5 10 -12z m-142 -33 c-6 -16 -24 -21 -24 -7 0 11 11 22 21 22
5 0 6 -7 3 -15z m2232 -60 c14 -28 14 -29 -1 -10 -9 11 -23 34 -31 50 -14 28
-14 29 1 10 9 -11 23 -33 31 -50z m-2256 -29 c0 -2 -7 -6 -15 -10 -8 -3 -15
-1 -15 4 0 6 7 10 15 10 8 0 15 -2 15 -4z m250 -59 c0 -1 -27 -29 -60 -61 -69
-67 -80 -64 -17 5 35 39 49 50 75 58 1 1 2 0 2 -2z m347 -53 c-3 -3 -12 -4
-19 -1 -8 3 -5 6 6 6 11 1 17 -2 13 -5z m177 -10 c33 -9 77 -24 96 -34 19 -10
57 -26 83 -35 91 -32 151 -93 316 -321 36 -49 118 -142 183 -207 l119 -118 75
-201 c42 -111 85 -220 96 -243 l21 -40 21 30 c83 116 183 183 259 171 195 -30
331 -233 298 -445 -25 -166 -139 -321 -288 -392 -84 -40 -204 -51 -279 -25
-26 9 -49 14 -52 11 -2 -2 -21 -42 -41 -87 -105 -236 -300 -419 -598 -563
-133 -64 -200 -87 -358 -121 -396 -85 -942 92 -1160 376 -46 60 -97 160 -141
275 -15 39 -32 73 -38 77 -8 6 -8 8 0 8 14 0 19 99 19 377 0 111 3 199 7 195
4 -4 21 -43 39 -87 43 -109 92 -206 124 -243 31 -37 116 -79 176 -87 l44 -5
-40 13 c-69 24 -103 45 -147 97 -76 88 -107 239 -74 354 34 115 161 205 251
177 26 -8 27 -9 7 -10 -37 -2 -98 -38 -131 -78 -91 -110 -77 -285 32 -400 121
-128 245 -137 357 -25 65 66 86 122 77 201 -14 118 -125 304 -221 369 -86 58
-209 77 -305 46 -16 -4 -22 -4 -18 3 12 19 125 36 195 30 52 -5 61 -4 42 4
-34 14 -204 7 -223 -10 -12 -9 -21 -10 -36 -2 -26 14 -34 14 -26 -1 4 -7 0 -5
-8 5 -16 20 -32 23 -21 5 5 -10 4 -10 -6 -1 -10 9 -5 18 25 45 21 18 53 44 72
57 l33 24 123 -17 c141 -19 171 -20 198 -6 26 15 24 32 -8 62 -34 33 -106 64
-167 73 l-46 7 23 27 c138 169 192 229 200 224 5 -3 13 1 18 8 14 23 10 32 -8
18 -16 -12 -16 -11 0 7 13 14 20 16 25 7 7 -10 12 -10 28 2 10 8 26 15 34 15
21 0 100 70 100 87 0 8 6 13 14 11 14 -3 106 102 106 121 0 6 9 11 20 11 11 0
20 7 20 15 0 10 10 15 26 15 15 0 34 8 43 18 9 10 36 24 61 32 25 7 50 17 55
21 6 4 37 13 69 20 40 10 61 20 64 32 2 9 12 18 21 18 9 1 3 5 -14 9 -25 6
-22 8 24 9 29 0 81 -6 115 -15z m-227 0 c-3 -3 -12 -4 -19 -1 -8 3 -5 6 6 6
11 1 17 -2 13 -5z m-107 -29 c-36 -14 -72 -23 -80 -22 -16 4 104 46 130 46 8
0 -14 -11 -50 -24z m-150 -70 c-13 -14 -28 -25 -34 -25 -6 1 3 12 19 25 39 32
45 32 15 0z m1201 -42 c13 -16 12 -17 -3 -4 -10 7 -18 15 -18 17 0 8 8 3 21
-13z m-1267 -8 c-4 -8 -11 -15 -16 -15 -6 0 -5 6 2 15 7 8 14 15 16 15 2 0 1
-7 -2 -15z m-214 -235 c0 -5 -5 -10 -11 -10 -5 0 -7 5 -4 10 3 6 8 10 11 10 2
0 4 -4 4 -10z m2545 -163 c72 -238 79 -395 26 -572 l-17 -60 0 130 c1 170 -30
527 -50 580 -5 12 -4 16 4 11 6 -4 23 -44 37 -89z m-7408 -543 c-3 -3 -12 -4
-19 -1 -8 3 -5 6 6 6 11 1 17 -2 13 -5z m4283 -48 c0 -3 -4 -8 -10 -11 -5 -3
-10 -1 -10 4 0 6 5 11 10 11 6 0 10 -2 10 -4z m-45 -16 c3 -5 1 -10 -4 -10 -6
0 -11 5 -11 10 0 6 2 10 4 10 3 0 8 -4 11 -10z m560 -45 c29 -28 31 -42 9 -73
-22 -31 -67 -29 -93 4 -27 34 -26 40 5 69 34 31 49 31 79 0z m-564 -7 c11 -21
11 -22 -4 -9 -10 7 -17 17 -17 22 0 15 9 10 21 -13z m-3660 -33 c668 -38 840
-45 1214 -55 220 -5 479 -14 575 -20 273 -16 798 -40 886 -40 76 0 83 2 157
44 89 51 128 66 170 66 40 0 32 -6 -70 -60 -80 -42 -135 -91 -120 -106 4 -4
41 10 83 30 88 44 148 66 176 66 32 0 10 -18 -65 -54 -166 -80 -301 -167 -348
-227 -17 -22 -29 -42 -27 -45 3 -2 30 18 62 46 62 54 165 118 254 157 31 13
102 47 157 75 55 28 98 48 95 45 -25 -26 -213 -156 -280 -193 -98 -55 -150
-91 -150 -105 0 -6 -11 -25 -24 -42 -35 -47 -102 -185 -122 -253 -12 -40 -18
-91 -18 -159 0 -85 5 -110 27 -165 14 -35 25 -66 23 -67 -6 -6 -56 84 -72 129
-53 151 -5 373 111 507 28 32 32 41 15 29 -48 -34 -155 -96 -159 -93 -1 2 10
21 27 42 42 55 79 126 75 144 -4 18 -15 19 -323 39 -353 23 -518 31 -860 40
-201 6 -468 15 -595 20 -604 25 -588 25 -582 4 3 -10 13 -71 22 -134 9 -63 26
-171 37 -240 10 -69 37 -244 58 -390 75 -507 81 -546 105 -675 14 -71 32 -177
39 -235 34 -253 81 -560 115 -740 l37 -195 1204 4 c663 2 1209 7 1213 11 12
11 -19 268 -53 437 -24 118 -36 156 -70 219 -44 79 -49 114 -7 47 20 -31 30
-39 53 -38 27 2 29 4 40 81 16 108 42 211 62 248 15 28 17 29 20 9 2 -12 -11
-79 -29 -150 -26 -108 -30 -140 -26 -203 4 -42 9 -84 13 -95 5 -13 4 -16 -5
-10 -10 6 -11 3 -2 -13 18 -34 39 -140 51 -257 7 -60 21 -157 31 -214 13 -72
16 -107 8 -111 -15 -10 -977 -23 -1829 -25 -399 -2 -878 -4 -1064 -5 -276 -2
-340 0 -347 11 -12 23 -48 207 -64 334 -8 66 -31 215 -49 330 -90 554 -109
673 -156 980 -27 182 -61 395 -75 475 -14 80 -34 208 -45 285 -11 77 -29 187
-40 245 -27 149 -33 198 -26 215 7 20 136 20 487 0z m3666 -57 c-3 -8 -6 -5
-6 6 -1 11 2 17 5 13 3 -3 4 -12 1 -19z m-18 -21 c-2 -1 -15 -11 -29 -22 l-25
-20 19 23 c11 12 24 22 29 22 6 0 8 -1 6 -3z m3492 -275 c24 -27 60 -78 80
-113 20 -35 57 -100 83 -144 50 -87 53 -95 31 -95 -8 0 -24 17 -35 38 -33 59
-67 102 -75 94 -5 -4 -5 1 -2 11 4 10 3 16 -2 13 -4 -3 -21 9 -37 26 -17 18
-24 32 -18 35 24 8 -1 41 -104 133 -103 93 -143 142 -157 189 -6 19 14 6 92
-57 55 -44 119 -102 144 -130z m-3067 64 c36 -31 56 -40 96 -44 44 -4 57 0
101 27 62 38 71 39 67 3 -4 -35 -22 -54 -84 -87 -70 -38 -110 -34 -181 18 -32
24 -70 57 -84 74 -25 29 -26 35 -16 82 l10 51 22 -43 c13 -23 43 -60 69 -81z
m-3161 -73 c4 -2 7 -20 7 -40 l0 -36 -107 6 c-58 4 -139 7 -179 7 -80 0 -104
13 -104 57 l0 25 188 -7 c103 -4 190 -9 195 -12z m322 -12 c57 -6 60 -8 69
-39 6 -21 6 -36 0 -42 -11 -11 -303 15 -315 28 -4 4 -11 19 -14 35 l-7 27 103
-1 c57 -1 131 -4 164 -8z m322 -19 c16 -19 -4 -55 -33 -61 -33 -6 -63 70 -31
82 18 8 50 -3 64 -21z m-129 -18 c2 -19 -3 -36 -14 -45 -14 -12 -19 -10 -35
10 -34 41 -21 72 26 68 15 -1 21 -10 23 -33z m1332 -189 c-33 -172 -22 -311
30 -416 31 -60 38 -93 19 -87 -6 2 -9 6 -7 10 2 3 -4 14 -13 24 -81 92 -112
323 -65 477 14 46 44 102 51 95 2 -1 -5 -48 -15 -103z m-1831 71 c13 -9 14
-26 2 -45 -7 -11 -41 -14 -172 -12 -98 1 -168 6 -176 13 -15 12 -17 55 -3 60
17 6 337 -9 349 -16z m6168 -26 c110 -89 194 -212 236 -345 52 -163 19 -316
-91 -430 -59 -60 -66 -42 -20 47 32 61 33 66 32 183 0 66 -6 145 -13 175 -18
77 -97 240 -165 338 -31 45 -53 82 -49 82 5 0 36 -23 70 -50z m-6037 16 c18
-23 8 -61 -17 -64 -17 -3 -24 3 -29 22 -12 48 18 75 46 42z m2530 -46 c12 -16
19 -30 16 -30 -2 0 -14 14 -26 30 -12 17 -19 30 -16 30 2 0 14 -13 26 -30z
m61 -77 c13 -16 12 -17 -3 -4 -10 7 -18 15 -18 17 0 8 8 3 21 -13z m-2721 -63
l0 -40 -129 0 c-139 0 -141 1 -141 56 l0 24 135 0 135 0 0 -40z m220 -150 c13
-25 3 -68 -17 -72 -24 -5 -331 6 -336 12 -2 3 -7 19 -10 37 -6 31 -5 32 31 36
20 2 101 4 179 5 132 2 143 1 153 -18z m80 -35 c0 -8 -4 -15 -10 -15 -5 0 -10
7 -10 15 0 8 5 15 10 15 6 0 10 -7 10 -15z m-350 -141 c12 -31 6 -44 -20 -44
-20 0 -40 27 -40 54 0 28 49 20 60 -10z m898 -24 l3 -43 -138 7 c-76 3 -257 9
-403 12 -145 3 -266 6 -267 8 -2 2 -8 18 -13 36 l-9 32 412 -4 412 -5 3 -43z
m126 34 c18 -17 20 -42 6 -64 -12 -19 -39 -4 -57 31 -21 41 18 66 51 33z m289
-16 c11 -6 17 -18 15 -31 -3 -21 -7 -22 -123 -22 l-120 0 -3 32 c-3 26 1 32
20 35 42 6 193 -4 211 -14z m-1205 -166 c3 -30 1 -33 -20 -30 -18 2 -24 10
-26 36 -3 30 -1 33 20 30 18 -2 24 -10 26 -36z m312 3 c0 -21 -6 -38 -14 -41
-8 -3 -62 -2 -122 3 l-108 8 -7 33 -6 32 128 0 129 0 0 -35z m603 15 l98 0 -3
-32 -3 -33 -70 -3 c-38 -2 -175 -1 -304 3 -210 7 -235 9 -252 26 -11 11 -19
26 -19 36 0 15 20 16 228 10 125 -4 271 -7 325 -7z m340 -27 c10 -51 2 -56
-90 -51 -46 2 -87 9 -92 14 -5 5 -11 21 -15 37 l-6 27 99 0 99 0 5 -27z m161
14 c11 -8 17 -23 14 -38 -3 -22 -8 -24 -53 -24 -45 0 -50 2 -53 24 -4 28 20
51 53 51 12 0 29 -6 39 -13z m749 -45 c79 -60 96 -80 103 -120 6 -33 8 -34 20
-17 13 18 14 17 14 -6 0 -46 -62 -133 -167 -236 -58 -57 -102 -103 -98 -103 3
0 45 21 92 47 109 61 209 164 277 285 27 49 51 86 54 84 6 -7 -45 -158 -88
-261 -158 -375 -116 -641 134 -853 21 -18 37 -35 35 -36 -2 -2 -28 3 -57 10
-79 21 -162 64 -176 94 -7 14 -28 93 -47 175 -35 156 -43 282 -25 375 12 64
-4 42 -20 -27 l-14 -58 6 85 c4 69 10 92 30 123 14 22 24 40 22 42 -2 2 -36
-19 -76 -46 -39 -28 -76 -48 -81 -45 -5 4 -19 -6 -30 -20 -17 -22 -21 -41 -21
-105 0 -90 -5 -109 -30 -109 -11 0 -21 -4 -25 -10 -3 -5 -13 -6 -22 -3 -23 9
-10 131 22 200 28 62 25 78 -16 87 -25 5 -29 10 -29 38 0 18 -15 107 -34 198
-19 91 -36 183 -37 205 -4 38 -2 40 25 43 16 2 33 -1 38 -6 5 -5 24 -96 44
-203 19 -107 39 -204 44 -216 9 -21 11 -20 60 28 39 38 49 54 45 71 -11 51
-44 246 -50 296 -7 61 -10 62 78 -6z m-2291 -69 c20 -18 24 -68 7 -78 -5 -4
-21 -4 -34 -1 -28 7 -44 58 -25 81 16 19 29 19 52 -2z m385 -25 c7 -6 13 -26
13 -45 l0 -35 -157 3 c-87 1 -164 7 -170 12 -14 10 -18 69 -5 82 10 11 304 -4
319 -17z m-492 -158 c0 -35 0 -35 -47 -38 -42 -3 -48 -1 -48 17 0 25 47 63 74
59 17 -2 21 -10 21 -38z m194 -156 c32 -7 41 -32 22 -62 -9 -15 -108 -28 -145
-18 -28 7 -51 48 -42 73 6 14 107 18 165 7z m344 0 c35 -6 37 -8 37 -46 l0
-39 -142 3 -141 3 -10 28 c-5 16 -7 31 -4 34 4 3 39 8 79 10 40 3 75 7 77 9 6
6 61 5 104 -2z m352 -12 c36 -7 40 -10 43 -40 l3 -33 -143 3 -143 3 -13 28
c-7 15 -10 32 -7 37 7 11 198 13 260 2z m355 -37 c0 -29 -4 -35 -22 -36 -49
-2 -104 3 -120 12 -10 6 -26 4 -44 -6 -24 -12 -32 -12 -49 -1 -11 7 -21 24
-23 38 l-3 25 131 1 130 2 0 -35z m5176 -188 c-3 -48 -15 -89 -36 -134 -29
-64 -53 -85 -29 -27 6 16 15 38 20 49 4 11 10 50 13 88 3 37 9 97 13 135 l7
67 9 -55 c5 -30 6 -86 3 -123z m-4218 107 c-23 -42 -32 -74 -36 -126 -6 -83
-22 -72 -22 15 0 61 7 81 47 135 38 51 44 37 11 -24z m-1790 -43 c8 -5 12 -21
10 -37 l-3 -29 -159 0 c-154 0 -159 0 -169 22 -7 16 -6 27 3 38 10 12 40 15
159 15 80 0 152 -4 159 -9z m177 -36 c0 -39 -1 -40 -33 -37 -52 4 -72 19 -72
53 0 30 0 30 53 27 l52 -3 0 -40z m5726 -81 c1 -94 -19 -168 -56 -208 -30 -33
-50 -33 -72 0 -16 24 -16 27 1 52 35 55 76 148 93 214 14 56 19 64 26 46 4
-12 8 -59 8 -104z m-5996 -44 c85 0 95 -2 105 -20 6 -12 8 -30 5 -40 -6 -18
-16 -20 -95 -20 -118 0 -140 9 -140 56 0 29 3 35 16 30 9 -3 58 -6 109 -6z
m2122 -52 c-2 -13 -4 -5 -4 17 -1 22 1 32 4 23 2 -10 2 -28 0 -40z m10 -80
c-3 -7 -5 -2 -5 12 0 14 2 19 5 13 2 -7 2 -19 0 -25z m-1917 -73 l0 -35 -94 0
c-76 0 -95 3 -100 16 -17 44 -5 49 127 52 l67 2 0 -35z m133 13 c14 -22 -7
-48 -39 -48 -20 0 -24 5 -24 28 0 16 3 32 7 36 12 11 45 2 56 -16z m-423 -3
c16 -20 6 -45 -19 -45 -20 0 -37 32 -26 50 9 15 31 12 45 -5z m6606 -165 c-18
-68 -20 -45 -4 36 7 32 14 50 16 39 1 -11 -4 -45 -12 -75z m-6288 -2 l-3 -33
-99 -3 c-102 -3 -126 4 -126 39 0 20 25 24 158 27 l73 2 -3 -32z m379 18 c0 0
4 -18 8 -38 l7 -38 -48 1 c-27 0 -87 4 -134 8 -49 5 -95 5 -109 -1 -29 -10
-28 -12 -36 34 l-7 37 44 3 c36 3 270 -2 275 -6z m127 -2 c17 -17 22 -69 7
-79 -5 -3 -19 8 -31 25 -17 23 -19 34 -10 50 13 24 14 24 34 4z m-902 -19 c8
-19 8 -28 -2 -40 -20 -24 -45 4 -36 39 8 33 23 33 38 1z m4615 -87 c-25 -35
-106 -178 -182 -318 -238 -442 -277 -513 -333 -605 -71 -117 -93 -145 -104
-139 -13 9 -6 24 76 153 40 64 108 181 151 261 177 329 261 479 308 550 70
105 111 159 120 160 4 0 -12 -28 -36 -62z m-1076 -14 c-18 -34 -37 -145 -55
-319 -2 -22 -2 16 0 85 4 131 24 232 51 262 25 27 26 15 4 -28z m3123 -28 c-2
-14 -9 -35 -14 -48 -8 -18 -8 -14 -4 17 4 22 9 43 11 48 8 14 12 7 7 -17z
m-5969 -16 c-4 -6 10 -10 34 -10 36 0 41 -3 41 -24 0 -22 -4 -23 -82 -29 -133
-11 -438 -8 -438 3 0 6 -9 10 -20 10 -11 0 -20 4 -20 9 0 5 -10 11 -22 14 -49
13 2 22 155 28 292 10 359 10 352 -1z m-627 -32 c2 -25 0 -29 -8 -18 -12 18
-13 50 -2 50 4 0 9 -15 10 -32z m6552 -105 c-11 -17 -11 -17 -6 0 3 10 6 24 7
30 0 9 2 9 5 0 3 -7 0 -20 -6 -30z m-6683 -29 c9 -23 -13 -40 -32 -24 -8 7
-15 19 -15 26 0 19 39 18 47 -2z m6664 -55 c-6 -16 -10 -18 -10 -7 -1 22 12
55 16 42 2 -6 -1 -22 -6 -35z m-14 -61 c-3 -7 -5 -2 -5 12 0 14 2 19 5 13 2
-7 2 -19 0 -25z m-32 -167 c-15 -64 -30 -127 -35 -141 l-8 -25 -1 24 c-1 35
63 299 67 277 2 -10 -8 -71 -23 -135z m366 106 c-6 -14 -8 -35 -6 -46 2 -12 0
-21 -6 -21 -5 0 -9 8 -9 19 0 22 21 84 26 78 3 -2 0 -16 -5 -30z m771 13 c37
-11 87 -44 78 -53 -3 -2 -36 -1 -75 4 -44 6 -73 5 -79 -1 -7 -7 -3 -10 10 -10
16 0 15 -3 -8 -17 -14 -9 -34 -35 -45 -57 -10 -23 -26 -42 -36 -44 -24 -5 -57
-33 -57 -49 0 -7 -11 -15 -25 -19 -14 -3 -25 -10 -25 -14 0 -4 -13 -13 -30
-19 -16 -5 -30 -17 -30 -25 0 -8 -10 -18 -22 -21 -13 -4 -33 -17 -46 -28 -17
-16 -33 -20 -71 -18 -91 5 -90 4 -76 46 4 11 -7 -2 -24 -30 -31 -50 -31 -50
-25 -15 25 149 188 321 342 361 76 20 189 24 244 9z m-666 -246 c18 -42 28
-204 14 -204 -6 0 -9 4 -6 8 3 5 -16 19 -43 32 -27 12 -61 32 -76 44 l-27 21
21 110 c31 161 28 157 68 84 20 -35 42 -78 49 -95z m-514 -79 c-6 -34 -12 -32
-12 6 0 16 4 28 9 25 4 -3 6 -17 3 -31z m1078 21 c0 -3 -4 -8 -10 -11 -5 -3
-10 -1 -10 4 0 6 5 11 10 11 6 0 10 -2 10 -4z m-2220 -66 c0 -5 -2 -10 -4 -10
-3 0 -8 5 -11 10 -3 6 -1 10 4 10 6 0 11 -4 11 -10z m-7277 -50 c25 0 36 -7
50 -31 10 -18 15 -34 13 -37 -3 -2 -13 9 -23 26 l-18 31 -32 -20 c-38 -24 -53
-18 -53 18 0 19 4 24 16 19 9 -3 30 -6 47 -6z m8394 -12 c-3 -8 -6 -5 -6 6 -1
11 2 17 5 13 3 -3 4 -12 1 -19z m-141 -255 c-10 -10 -19 5 -10 18 6 11 8 11
12 0 2 -7 1 -15 -2 -18z m-44 -65 c-12 -12 -35 -1 -27 12 3 5 13 6 21 3 10 -4
12 -9 6 -15z m43 -27 c-6 -5 -25 10 -25 20 0 5 6 4 14 -3 8 -7 12 -15 11 -17z
m-7028 -41 c199 -10 430 -3 567 16 34 5 47 4 42 -4 -10 -16 -61 -30 -156 -42
-86 -12 -114 -20 -67 -20 14 0 28 -4 32 -10 3 -5 12 -7 19 -4 10 4 15 -7 19
-38 4 -24 11 -77 16 -118 13 -89 6 -151 -20 -184 l-19 -24 32 -7 c116 -26
-270 -58 -417 -35 -27 4 -42 8 -32 9 18 1 25 41 7 41 -5 0 -10 9 -10 20 0 11
-6 20 -14 20 -17 0 -41 213 -26 240 13 25 12 39 -1 20 -8 -12 -9 -10 -4 8 7
24 38 61 53 63 24 3 5 8 -50 14 -112 12 -233 36 -243 47 -7 8 0 9 25 4 19 -4
130 -11 247 -16z m6959 -52 c4 -7 4 -10 -1 -6 -4 4 -14 3 -22 -3 -10 -9 -13
-8 -13 5 0 19 26 22 36 4z m-49 -20 c-3 -8 -6 -5 -6 6 -1 11 2 17 5 13 3 -3 4
-12 1 -19z m0 -40 c-3 -8 -6 -5 -6 6 -1 11 2 17 5 13 3 -3 4 -12 1 -19z m-702
-58 c-3 -5 -11 -10 -16 -10 -6 0 -7 5 -4 10 3 6 11 10 16 10 6 0 7 -4 4 -10z
m592 -52 c-3 -8 -6 -5 -6 6 -1 11 2 17 5 13 3 -3 4 -12 1 -19z m-621 -8 c9
-11 8 -17 -4 -26 -9 -7 -20 -10 -24 -8 -5 3 -8 0 -8 -5 0 -6 5 -11 11 -11 8 0
8 -4 0 -13 -8 -10 -7 -17 1 -25 7 -7 9 -12 4 -12 -15 0 -41 33 -29 37 7 3 9
11 6 19 -4 10 2 17 16 21 27 7 28 23 1 23 -11 0 -20 5 -20 10 0 15 33 8 46
-10z m-5599 -77 c-4 -49 -10 -98 -13 -110 -7 -27 -24 -31 -19 -5 2 9 9 59 16
110 6 50 14 92 17 92 3 0 2 -39 -1 -87z m5473 61 c0 -8 -5 -12 -10 -9 -6 4 -8
11 -5 16 9 14 15 11 15 -7z m220 1 c11 -13 10 -14 -6 -8 -17 6 -18 5 -4 -12
14 -17 14 -18 -7 -6 -23 12 -28 22 -16 34 10 11 19 8 33 -8z m195 -25 c-7 -21
-7 -21 -28 -3 -20 18 -20 17 -13 -2 5 -15 4 -17 -5 -8 -6 6 -8 17 -4 23 5 8
10 9 18 1 16 -16 27 -13 27 6 0 9 3 14 6 10 3 -3 3 -15 -1 -27z m69 -2 c-4
-13 -12 -26 -18 -30 -15 -10 46 -4 62 6 10 6 10 11 1 24 -10 13 -8 13 7 -1 18
-17 18 -19 1 -28 -9 -6 -15 -14 -12 -19 3 -5 1 -11 -5 -15 -6 -4 -8 -11 -4
-16 4 -6 10 -6 18 0 10 8 18 5 32 -11 15 -17 15 -20 2 -9 -9 7 -22 10 -27 6
-13 -7 -51 12 -51 26 0 6 4 8 9 4 5 -3 12 -1 15 4 10 16 -14 24 -30 10 -25
-21 -40 3 -24 40 14 36 35 42 24 9z m87 -11 c-8 -8 -11 -7 -11 4 0 20 13 34
18 19 3 -7 -1 -17 -7 -23z m65 14 c-4 -5 -15 -9 -26 -8 -10 1 -17 5 -14 9 3 4
11 5 19 1 8 -3 15 1 15 8 0 7 3 10 6 6 3 -3 3 -10 0 -16z m-614 -9 c-16 -12
-21 -24 -17 -37 6 -16 5 -17 -4 -5 -16 23 -13 36 12 48 32 16 35 14 9 -6z m31
-10 c-3 -12 -9 -19 -14 -16 -5 3 -3 14 3 24 15 24 19 21 11 -8z m111 19 c3 -4
-6 -13 -19 -19 -19 -9 -24 -9 -22 1 4 22 31 35 41 18z m351 -19 c-8 -8 -25 10
-19 20 4 6 9 5 15 -3 4 -7 6 -15 4 -17z m-545 8 c0 -5 -4 -10 -10 -10 -5 0
-10 5 -10 10 0 6 5 10 10 10 6 0 10 -4 10 -10z m633 -25 c4 -8 2 -17 -3 -20
-6 -4 -10 3 -10 14 0 25 6 27 13 6z m-212 -15 c6 0 7 5 3 12 -5 7 -3 8 5 3 9
-5 9 -11 3 -17 -12 -12 -32 -2 -31 15 0 9 2 9 6 0 2 -7 9 -13 14 -13z m179 10
c0 -5 -5 -10 -11 -10 -5 0 -7 5 -4 10 3 6 8 10 11 10 2 0 4 -4 4 -10z m-130
-10 c0 -5 -4 -10 -10 -10 -5 0 -10 5 -10 10 0 6 5 10 10 10 6 0 10 -4 10 -10z
m-450 -35 c0 -5 -5 -3 -10 5 -5 8 -10 20 -10 25 0 6 5 3 10 -5 5 -8 10 -19 10
-25z m70 31 c0 -3 -4 -8 -10 -11 -5 -3 -10 -1 -10 4 0 6 5 11 10 11 6 0 10 -2
10 -4z m-105 -24 c-3 -3 -11 0 -18 7 -9 10 -8 11 6 5 10 -3 15 -9 12 -12z
m500 -2 c3 -5 1 -10 -4 -10 -6 0 -11 5 -11 10 0 6 2 10 4 10 3 0 8 -4 11 -10z
m-5217 -7 c-21 -2 -57 -2 -80 0 -24 2 -7 4 37 4 44 0 63 -2 43 -4z m4693 -10
c13 -16 12 -17 -3 -4 -10 7 -18 15 -18 17 0 8 8 3 21 -13z m589 -23 c0 -15 -5
-12 -26 11 -19 22 -19 22 4 10 12 -6 22 -16 22 -21z m-4883 -386 c-3 -3 -12
-4 -19 -1 -8 3 -5 6 6 6 11 1 17 -2 13 -5z m73 -14 c11 -8 7 -9 -15 -4 -37 8
-45 14 -19 14 10 0 26 -5 34 -10z m1047 -6 c-3 -3 -12 -4 -19 -1 -8 3 -5 6 6
6 11 1 17 -2 13 -5z m-984 -11 c-7 -2 -19 -2 -25 0 -7 3 -2 5 12 5 14 0 19 -2
13 -5z m901 -5 c-6 -10 -62 -9 -89 1 -13 5 -1 8 37 8 31 0 55 -4 52 -9z m5586
-39 c0 -5 -7 -6 -15 -3 -8 4 -15 1 -15 -5 0 -6 6 -11 13 -11 6 0 4 -5 -6 -11
-10 -6 -21 -8 -24 -5 -4 3 -1 6 6 6 8 0 9 5 2 19 -6 10 -8 21 -5 24 8 7 44 -4
44 -14z m120 -1 c0 -11 -12 -10 -30 2 -12 7 -10 9 8 7 12 0 22 -5 22 -9z
m-981 -12 c8 -10 6 -19 -9 -38 -25 -33 -15 -43 18 -18 32 26 50 26 27 0 -10
-11 -13 -20 -7 -20 34 0 49 -18 44 -53 -3 -20 -8 -25 -15 -18 -20 20 -37 12
-37 -19 0 -22 5 -30 18 -30 11 0 24 -10 29 -23 10 -22 9 -23 -18 -19 -16 2
-29 0 -29 -6 0 -5 -15 -12 -32 -15 -18 -4 -48 -9 -67 -13 l-34 -7 7 119 c4 66
8 125 8 132 1 7 7 11 13 8 7 -2 18 1 25 7 10 9 12 8 7 -5 -5 -13 -1 -18 14
-18 11 0 17 5 14 10 -3 6 2 11 12 11 17 1 17 2 1 6 -10 2 -18 9 -18 14 0 13
16 11 29 -5z m414 -27 c3 -12 0 -22 -9 -26 -20 -7 -24 -1 -17 25 7 28 19 28
26 1z m257 14 c0 -5 -11 -13 -24 -19 -23 -11 -24 -10 -13 7 12 19 37 26 37 12z
m120 -26 c0 -14 3 -18 8 -10 6 9 11 7 20 -7 7 -12 8 -20 2 -20 -5 0 -10 6 -11
13 0 9 -2 9 -6 -1 -3 -8 -10 -5 -23 10 -15 19 -20 20 -34 9 -21 -17 -33 -7
-15 12 32 31 59 29 59 -6z m-580 -42 c0 -8 -6 -15 -12 -15 -7 0 -23 -3 -35 -6
-14 -4 -23 -2 -23 5 0 6 11 11 25 11 14 0 25 5 25 10 0 6 5 10 10 10 6 0 10
-7 10 -15z m244 -21 c-4 -15 -2 -24 5 -24 6 0 11 7 11 15 0 8 5 15 10 15 6 0
10 -5 10 -10 0 -6 11 -8 26 -4 19 5 25 4 20 -5 -4 -6 -14 -11 -22 -11 -8 0
-14 -4 -14 -10 0 -5 5 -10 12 -10 20 0 -2 -14 -28 -17 -14 -2 -37 5 -53 16
-29 21 -41 19 -41 -6 0 -7 7 -13 15 -13 8 0 15 -7 15 -15 0 -16 10 -18 79 -15
24 1 41 -2 37 -8 -5 -9 -97 -17 -318 -28 -66 -4 -98 -2 -98 5 0 6 8 11 18 11
10 0 24 6 31 13 8 6 11 7 8 1 -5 -8 11 -12 47 -13 l53 -1 -3 38 c-2 28 0 33 7
19 6 -9 7 -22 4 -27 -8 -13 68 -17 103 -5 25 9 -14 35 -52 35 -25 0 -36 4 -36
15 0 8 9 15 20 15 11 0 20 5 20 10 0 6 -9 10 -20 10 -11 0 -20 5 -20 10 0 10
41 15 92 11 14 -1 29 3 32 8 13 20 36 0 30 -25z m56 26 c0 -5 -5 -10 -11 -10
-5 0 -7 5 -4 10 3 6 8 10 11 10 2 0 4 -4 4 -10z m260 0 c0 -5 -4 -10 -10 -10
-5 0 -10 5 -10 10 0 6 5 10 10 10 6 0 10 -4 10 -10z m260 -2 c0 -4 -12 -8 -26
-8 -14 0 -23 4 -19 9 6 11 45 10 45 -1z m-390 -18 c0 -11 -7 -20 -15 -20 -8 0
-15 9 -15 20 0 11 7 20 15 20 8 0 15 -9 15 -20z m210 0 c0 -5 -4 -10 -10 -10
-5 0 -10 5 -10 10 0 6 5 10 10 10 6 0 10 -4 10 -10z m-3840 -7 c0 -14 -20 -39
-20 -25 0 6 -9 12 -21 12 -11 0 -17 5 -14 10 7 12 55 14 55 3z m340 -50 c18
-32 40 -66 49 -77 15 -18 15 -18 -14 -12 -16 3 -85 8 -151 10 -67 3 -138 8
-158 11 l-37 7 3 52 3 51 95 3 c52 1 102 4 110 6 55 14 68 7 100 -51z m3231
24 c-13 -13 -26 -3 -16 12 3 6 11 8 17 5 6 -4 6 -10 -1 -17z m129 2 c0 -6 -4
-7 -10 -4 -5 3 -10 11 -10 16 0 6 5 7 10 4 6 -3 10 -11 10 -16z m-623 -21 c-3
-7 -5 -2 -5 12 0 14 2 19 5 13 2 -7 2 -19 0 -25z m153 7 c0 -8 -4 -15 -10 -15
-5 0 -10 7 -10 15 0 8 5 15 10 15 6 0 10 -7 10 -15z m-100 -5 c0 -5 -9 -10
-21 -10 -11 0 -17 5 -14 10 3 6 13 10 21 10 8 0 14 -4 14 -10z m530 -5 c10
-13 9 -15 -8 -15 -15 0 -20 5 -16 15 4 8 7 15 9 15 1 0 8 -7 15 -15z m81 0
c-42 -19 -52 -19 -27 0 11 8 29 15 40 15 16 -1 12 -5 -13 -15z m-3754 -57 c-3
-8 -6 -5 -6 6 -1 11 2 17 5 13 3 -3 4 -12 1 -19z m-2064 -63 c11 -7 25 -11 32
-9 7 3 14 -5 17 -20 3 -14 1 -26 -4 -26 -5 0 -3 -7 5 -15 9 -8 17 -20 20 -27
3 -10 9 -10 27 0 26 16 38 9 21 -12 -7 -8 -19 -12 -27 -9 -8 3 -20 1 -27 -5
-14 -12 -56 13 -42 25 4 5 10 2 12 -4 5 -14 23 -18 23 -5 0 5 -6 17 -14 27
-12 16 -16 17 -30 6 -11 -9 -16 -10 -16 -2 0 6 5 11 11 11 5 0 7 5 4 10 -5 8
-11 7 -20 0 -10 -8 -19 -8 -34 -1 -27 15 -31 14 -31 -10 0 -12 -4 -18 -11 -13
-6 3 -15 0 -20 -7 -4 -7 -11 -10 -15 -7 -4 4 1 19 10 33 16 24 16 25 -9 25
-14 0 -25 5 -25 10 0 6 11 10 25 10 14 0 25 5 25 10 0 16 47 12 54 -5 3 -8 15
-15 27 -15 l22 0 -23 20 c-26 23 -15 27 13 5z m-743 -5 c12 -8 13 -13 3 -30
-17 -26 -16 -30 2 -30 8 0 15 5 15 11 0 5 5 7 11 3 8 -5 6 -10 -5 -16 -20 -11
-21 -28 -1 -28 8 0 15 -4 15 -10 0 -12 -27 -13 -32 -1 -1 4 -13 12 -25 15 -19
6 -25 2 -33 -18 -5 -14 -16 -26 -25 -26 -8 0 -15 -4 -15 -10 0 -5 -11 -10 -24
-10 -24 0 -41 23 -30 41 3 5 1 9 -5 9 -5 0 -11 -5 -13 -12 -5 -14 -38 -20 -38
-7 0 16 -29 10 -39 -8 -9 -15 -12 -16 -20 -4 -10 16 16 45 50 56 11 4 19 13
19 21 0 8 9 14 20 14 11 0 20 5 20 11 0 7 -14 10 -35 7 -19 -2 -35 0 -35 4 0
8 18 10 116 12 60 2 62 1 53 -21 -9 -24 -3 -28 18 -15 7 4 11 18 8 30 -4 24 2
27 25 12z m117 4 c-3 -3 -12 -4 -19 -1 -8 3 -5 6 6 6 11 1 17 -2 13 -5z m193
-18 c0 -8 10 -16 23 -19 21 -3 21 -4 -5 -11 -20 -6 -32 -4 -43 7 -21 21 -19
37 5 37 11 0 20 -6 20 -14z m260 10 c0 -12 -13 -36 -20 -36 -4 0 -10 9 -13 20
-4 15 0 20 14 20 10 0 19 -2 19 -4z m305 -6 c-8 -13 -35 -13 -55 0 -11 7 -5
10 23 10 23 0 36 -4 32 -10z m-585 -52 c0 -4 13 -8 29 -8 21 0 30 -6 34 -22 4
-13 1 -26 -6 -30 -8 -5 -13 -1 -15 12 -3 15 -9 18 -37 13 -23 -4 -43 0 -59 11
-31 20 -36 20 -36 1 0 -8 -4 -15 -10 -15 -11 0 -12 6 -4 38 4 13 14 22 25 22
11 0 19 5 19 11 0 5 13 2 30 -8 17 -9 30 -21 30 -25z m140 5 c0 9 7 17 15 17
8 0 15 5 15 10 0 6 7 10 15 10 10 0 15 -10 15 -29 0 -23 5 -31 23 -34 18 -4
17 -5 -6 -6 -38 -1 -30 -22 14 -39 34 -12 33 -12 -21 -8 -30 2 -56 9 -58 15
-4 11 -32 16 -32 5 0 -4 8 -13 18 -20 12 -10 13 -13 3 -14 -13 0 -40 27 -41
42 0 4 10 9 23 11 19 4 19 4 -5 6 -33 1 -42 14 -34 47 l7 25 24 -28 c19 -22
24 -24 25 -10z m-740 -4 c0 -14 7 -19 28 -20 l27 -2 -27 -4 c-29 -4 -39 -23
-13 -23 8 0 15 -6 15 -14 0 -14 22 -27 52 -31 9 -1 15 2 12 6 -2 4 4 7 15 6
12 -1 17 -6 13 -16 -4 -11 3 -13 42 -9 32 4 46 2 43 -6 -2 -6 -17 -11 -33 -11
-18 0 -32 -6 -36 -17 -4 -10 -15 -18 -25 -17 -11 0 -13 3 -5 6 26 10 12 33
-20 33 -25 0 -40 8 -61 32 -26 31 -28 31 -21 8 3 -14 13 -32 20 -41 19 -22 18
-26 -15 -37 -36 -13 -51 -3 -61 42 -7 32 -6 36 11 36 10 0 19 5 19 10 0 6 -6
10 -14 10 -8 0 -18 -4 -21 -10 -3 -5 -15 -10 -26 -10 -11 0 -22 -7 -25 -15 -9
-22 -32 -18 -39 6 -4 11 -5 22 -3 23 21 13 66 26 93 26 33 0 35 2 35 36 0 21
4 33 10 29 6 -3 10 -15 10 -26z m1317 -11 c-3 -7 -5 -2 -5 12 0 14 2 19 5 13
2 -7 2 -19 0 -25z m33 22 c0 -5 -5 -10 -11 -10 -5 0 -7 5 -4 10 3 6 8 10 11
10 2 0 4 -4 4 -10z m-1283 -16 c-3 -3 -12 -4 -19 -1 -8 3 -5 6 6 6 11 1 17 -2
13 -5z m407 -9 c-4 -8 -9 -15 -13 -15 -4 0 -8 7 -8 15 0 8 6 15 13 15 8 0 11
-6 8 -15z m446 -17 c0 -18 -2 -20 -9 -8 -6 8 -7 18 -5 22 9 14 14 9 14 -14z
m-3283 -4 c-3 -3 -12 -4 -19 -1 -8 3 -5 6 6 6 11 1 17 -2 13 -5z m3666 -1
c-13 -2 -33 -2 -45 0 -13 2 -3 4 22 4 25 0 35 -2 23 -4z m-1486 -35 c-3 -8 -6
-5 -6 6 -1 11 2 17 5 13 3 -3 4 -12 1 -19z m733 1 c0 -5 -7 -9 -15 -9 -8 0
-15 -7 -15 -16 0 -8 -4 -13 -9 -10 -14 9 11 55 26 49 7 -3 13 -9 13 -14z m822
7 c29 -8 66 -19 82 -25 23 -9 31 -9 38 1 5 8 8 9 8 2 0 -7 8 -14 18 -17 9 -2
25 -8 35 -12 14 -6 16 -4 10 11 -6 16 -4 17 9 7 8 -7 18 -10 21 -6 4 3 7 1 7
-5 0 -7 -6 -13 -12 -13 -7 -1 -24 -3 -38 -4 -14 -1 -43 -7 -65 -13 -23 -6 -73
-10 -113 -8 -40 2 -88 0 -106 -4 -26 -6 -35 -3 -44 11 -9 13 -8 19 5 23 9 4
18 4 21 1 3 -3 -1 -5 -8 -5 -7 0 -11 -2 -8 -5 8 -9 38 6 32 16 -3 5 5 9 18 9
18 0 20 2 9 9 -11 7 -6 11 20 14 l34 4 -40 2 c-32 2 -36 4 -20 11 27 12 27 12
87 -4z m-3942 -16 c0 -5 -4 -10 -10 -10 -5 0 -10 5 -10 10 0 6 5 10 10 10 6 0
10 -4 10 -10z m3193 -2 c-6 -11 -51 -10 -58 1 -3 5 10 9 29 8 19 -1 32 -5 29
-9z m1008 -11 c-10 -9 -11 -8 -5 6 3 10 9 15 12 12 3 -3 0 -11 -7 -18z m-1173
-6 c8 -4 13 -11 13 -15 -3 -21 2 -26 24 -26 14 0 34 -5 44 -12 15 -9 25 -9 46
0 32 15 115 16 115 2 0 -5 -10 -10 -22 -11 -14 -1 -5 -6 22 -14 40 -11 42 -13
20 -18 -14 -3 -72 -9 -130 -12 -58 -3 -122 -8 -142 -12 -35 -5 -36 -4 -32 18
l5 24 -16 -25 c-10 -15 -14 -18 -11 -7 3 10 6 23 6 27 0 5 14 17 30 27 35 20
37 29 10 38 -11 4 -18 11 -15 16 7 11 16 11 33 0z m-2121 -17 c-3 -3 -12 -4
-19 -1 -8 3 -5 6 6 6 11 1 17 -2 13 -5z m2788 -15 c-4 -5 12 -9 35 -9 25 0 39
-4 35 -10 -9 -14 -32 -12 -72 6 -24 12 -31 19 -22 25 16 9 32 1 24 -12z m3481
-94 c-9 -64 -24 -77 -59 -51 -25 19 -44 89 -26 95 8 2 27 19 44 37 l30 33 8
-42 c4 -23 6 -55 3 -72z m-3726 65 c0 -11 -4 -20 -10 -20 -5 0 -10 2 -10 4 0
2 -3 11 -6 20 -4 11 -1 16 10 16 9 0 16 -8 16 -20z m153 3 c-6 -15 -33 -18
-33 -3 0 6 -9 6 -26 0 -35 -14 -42 -12 -21 4 24 18 87 17 80 -1z m47 7 c0 -5
-2 -10 -4 -10 -3 0 -8 5 -11 10 -3 6 -1 10 4 10 6 0 11 -4 11 -10z m-1206 -6
c9 -3 16 -12 16 -20 0 -8 4 -14 10 -14 5 0 7 7 4 15 -4 10 0 15 14 15 34 0 34
-17 0 -38 -34 -22 -63 -19 -53 6 3 8 0 21 -6 28 -13 15 -9 17 15 8z m934 -31
c-10 -2 -28 -2 -40 0 -13 2 -5 4 17 4 22 1 32 -1 23 -4z m-968 -23 c6 -11 7
-20 2 -20 -6 0 -12 9 -15 20 -3 11 -3 20 -1 20 2 0 8 -9 14 -20z m245 -16 l80
-8 -65 -7 c-36 -4 -90 -10 -120 -13 -30 -3 -79 -8 -107 -12 -46 -5 -53 -4 -53
11 0 11 5 15 15 11 9 -3 34 1 57 9 23 7 45 12 50 9 4 -3 11 1 14 10 4 11 11
12 27 6 12 -5 58 -12 102 -16z m3645 -58 c0 -3 -4 -8 -10 -11 -5 -3 -10 -1
-10 4 0 6 5 11 10 11 6 0 10 -2 10 -4z m-363 -156 c-4 -27 -10 -30 -25 -14
-11 12 -10 14 3 14 8 0 15 5 15 10 0 6 2 10 5 10 3 0 4 -9 2 -20z m48 -10 c-3
-5 -10 -10 -16 -10 -5 0 -9 5 -9 10 0 6 7 10 16 10 8 0 12 -4 9 -10z m-745
-40 c0 -5 -2 -10 -4 -10 -3 0 -8 5 -11 10 -3 6 -1 10 4 10 6 0 11 -4 11 -10z
m420 -30 c0 -5 -4 -10 -10 -10 -5 0 -10 5 -10 10 0 6 5 10 10 10 6 0 10 -4 10
-10z m-885 -9 c-3 -5 0 -11 7 -14 7 -2 5 -3 -4 -2 -10 2 -21 -1 -24 -6 -6 -11
-24 -12 -24 -1 0 4 10 12 23 18 30 15 29 15 22 5z m-75 -26 c0 -11 -11 -15
-37 -15 -25 0 -33 3 -24 9 7 5 22 6 32 4 10 -3 19 0 19 6 0 6 2 11 5 11 3 0 5
-7 5 -15z m1800 0 c0 -7 -150 -52 -200 -59 -72 -11 -38 5 73 35 106 28 127 32
127 24z m-2340 -9 c0 -3 -4 -8 -10 -11 -5 -3 -10 -1 -10 4 0 6 5 11 10 11 6 0
10 -2 10 -4z m417 -2 c-3 -3 -12 -4 -19 -1 -8 3 -5 6 6 6 11 1 17 -2 13 -5z
m413 -53 c28 -6 -30 -7 -155 -4 -157 3 -218 1 -285 -12 -131 -25 -140 -27
-140 -35 0 -5 -20 -20 -45 -34 -25 -15 -45 -31 -45 -36 0 -6 -5 -10 -12 -10
-9 0 -9 3 0 12 15 15 16 32 2 23 -5 -3 -10 -4 -10 -2 0 2 19 17 43 33 86 61
225 84 467 77 74 -2 155 -8 180 -12z m180 -16 c79 -8 661 -13 793 -7 70 4 127
4 127 0 0 -26 -699 -31 -920 -6 -47 6 -93 10 -102 10 -10 -1 -20 4 -24 9 -4 7
9 9 37 5 24 -3 64 -8 89 -11z m990 5 c0 -5 -15 -9 -32 -9 l-33 1 30 8 c17 4
31 8 33 9 1 0 2 -3 2 -9z m37 4 c-3 -3 -12 -4 -19 -1 -8 3 -5 6 6 6 11 1 17
-2 13 -5z m1463 -354 c0 9 6 4 14 -10 7 -14 9 -30 4 -36 -4 -6 -4 -14 0 -19 4
-4 -5 0 -19 9 -20 13 -25 22 -21 42 3 19 7 22 13 12 7 -10 9 -10 9 2z m113
-11 c-4 -13 -8 -17 -13 -9 -5 8 -10 3 -14 -12 -5 -15 -9 -18 -13 -10 -5 13 23
52 38 52 4 0 5 -9 2 -21z m31 3 c3 -5 -1 -9 -9 -9 -8 0 -12 4 -9 9 3 4 7 8 9
8 2 0 6 -4 9 -8z m-351 -27 c-3 -8 0 -15 6 -15 6 0 11 5 11 12 0 6 3 8 6 5 4
-4 1 -20 -6 -37 -11 -27 -11 -33 6 -46 18 -14 18 -15 -3 -9 -13 4 -23 2 -23
-3 0 -13 -44 -9 -53 6 -5 7 -13 10 -19 6 -6 -4 -8 2 -4 17 3 13 3 18 0 11 -3
-6 -10 -9 -15 -6 -6 3 -5 11 2 20 8 10 8 14 0 14 -6 0 -11 -6 -12 -12 0 -7 -5
-2 -10 11 -5 13 -7 26 -4 29 3 3 5 1 5 -5 0 -6 11 -10 25 -10 15 0 22 4 19 11
-3 6 1 3 9 -6 17 -22 28 -23 21 -4 -3 8 -1 17 4 20 5 3 10 0 9 -7 -1 -33 4
-48 14 -41 7 4 7 10 1 16 -11 11 -4 50 9 43 4 -3 6 -12 2 -20z m140 5 c3 -11
1 -20 -4 -20 -5 0 -9 9 -9 20 0 11 2 20 4 20 2 0 6 -9 9 -20z m30 -5 c-7 -21
-13 -19 -13 6 0 11 4 18 10 14 5 -3 7 -12 3 -20z m-53 -22 c0 -7 -7 -13 -15
-13 -8 0 -15 5 -15 11 0 5 5 7 11 3 8 -4 9 1 4 17 -5 19 -4 21 4 9 6 -8 11
-21 11 -27z m-40 23 c0 -2 -7 -6 -15 -10 -8 -3 -15 -1 -15 4 0 6 7 10 15 10 8
0 15 -2 15 -4z m430 -16 c-35 -11 -50 -11 -50 -2 0 5 17 9 38 9 32 1 34 0 12
-7z m-1085 -18 c-3 -10 0 -12 10 -9 8 4 19 -1 24 -11 7 -12 10 -13 11 -3 0 8
-7 19 -16 26 -15 11 -15 12 0 12 9 0 16 -5 16 -10 0 -5 7 -7 14 -4 10 4 13 1
10 -8 -4 -9 1 -13 15 -12 13 1 20 6 17 14 -3 7 -2 13 3 13 5 0 11 -9 14 -20 3
-11 11 -20 19 -20 9 0 10 2 1 8 -8 5 -3 11 13 19 13 6 22 7 18 2 -3 -5 1 -9
10 -9 8 0 16 3 19 8 2 4 2 1 1 -5 -2 -7 6 -13 17 -13 11 0 18 4 15 8 -2 4 5
14 17 21 18 11 20 11 10 0 -18 -18 -16 -32 2 -25 20 7 72 -12 79 -31 4 -8 13
-13 21 -9 18 7 19 -5 3 -27 -10 -12 -42 -19 -128 -27 -63 -5 -126 -12 -140
-14 -52 -9 -118 -16 -200 -22 -47 -3 -105 -8 -130 -10 -171 -17 -684 -26 -822
-15 -46 4 -62 14 -35 24 6 2 8 8 4 13 -5 5 -15 0 -24 -11 -12 -16 -14 -16 -10
-3 4 10 -1 25 -11 35 -16 16 -16 17 0 10 10 -3 20 -1 24 4 3 6 17 9 30 6 13
-2 24 -1 24 2 0 4 18 7 40 8 22 1 38 -2 35 -7 -3 -5 3 -8 14 -7 11 0 18 4 16
7 -2 3 15 6 38 7 23 0 61 3 85 6 28 4 42 1 42 -6 0 -8 4 -7 9 2 5 7 14 10 20
7 6 -4 11 -3 11 3 0 5 24 10 53 10 28 0 84 4 122 10 39 5 111 12 160 16 89 6
112 8 210 22 28 4 62 7 78 7 15 1 27 4 27 7 0 3 18 5 40 4 22 -1 38 1 35 5 -2
4 3 7 11 7 9 0 13 -6 9 -15z m152 12 c-3 -3 -12 -4 -19 -1 -8 3 -5 6 6 6 11 1
17 -2 13 -5z m870 0 c-3 -3 -12 -4 -19 -1 -8 3 -5 6 6 6 11 1 17 -2 13 -5z
m-722 -14 c3 -6 -1 -7 -9 -4 -18 7 -21 14 -7 14 6 0 13 -4 16 -10z m115 -21
c0 -16 4 -17 27 -8 26 10 42 0 43 -25 0 -4 7 -5 16 -2 9 4 14 1 12 -5 -2 -7
-18 -13 -36 -15 -27 -3 -32 -1 -32 19 l-1 22 -21 -25 c-14 -16 -19 -19 -15 -7
4 9 2 17 -3 17 -6 0 -10 -9 -10 -20 0 -11 -4 -20 -10 -20 -13 0 -12 10 5 40
17 30 18 40 5 40 -5 0 -10 -8 -11 -17 0 -15 -2 -15 -8 2 -11 26 -5 34 19 28
11 -3 20 -14 20 -24z m500 19 c0 -4 -6 -8 -14 -8 -8 0 -17 4 -20 8 -2 4 4 8
15 8 10 0 19 -4 19 -8z m-465 -8 c3 -5 1 -10 -4 -10 -6 0 -11 5 -11 10 0 6 2
10 4 10 3 0 8 -4 11 -10z m335 -8 c0 -8 -6 -12 -15 -8 -8 3 -15 2 -15 -2 0 -4
-9 -8 -20 -8 -11 0 -19 5 -17 11 2 5 9 10 15 10 5 0 13 3 16 6 12 11 36 5 36
-9z m-422 -15 c2 -9 -2 -17 -9 -17 -7 0 -9 3 -6 7 4 3 1 13 -6 21 -10 13 -9
14 3 10 8 -2 16 -12 18 -21z m279 3 c-4 -27 -17 -38 -17 -13 0 18 8 33 17 33
1 0 2 -9 0 -20z m49 7 c14 17 14 16 4 -4 -12 -25 -40 -21 -40 6 1 14 2 14 11
-2 10 -18 11 -18 25 0z m-226 -116 c0 -5 -28 -12 -62 -16 -35 -4 -70 -8 -78
-10 -9 -1 -61 -6 -115 -9 -55 -4 -118 -9 -140 -11 -22 -3 -74 -7 -115 -10 -41
-3 -131 -13 -200 -21 -214 -28 -977 -24 -1052 5 -14 5 -29 7 -32 4 -3 -4 -6
-2 -6 4 0 7 22 8 63 4 91 -9 829 -7 987 2 134 8 156 10 227 21 21 3 70 8 108
12 39 3 73 8 76 10 3 2 75 6 160 10 85 3 156 8 158 10 8 7 21 4 21 -5z m-3630
-701 c16 0 32 -4 35 -10 4 -6 -16 -10 -54 -10 -58 0 -79 9 -66 30 4 6 15 6 31
0 14 -6 38 -10 54 -10z"/>
<path d="M6445 7921 c-189 -51 -340 -171 -266 -211 37 -19 82 -10 217 45 232
94 361 106 493 44 35 -16 66 -28 68 -25 10 9 -108 101 -167 129 -58 28 -76 32
-170 34 -78 2 -123 -2 -175 -16z"/>
<path d="M6540 7681 c-15 -5 10 -8 65 -8 50 0 106 -3 125 -6 34 -6 34 -6 -5 8
-43 14 -144 18 -185 6z"/>
<path d="M6512 7640 c-118 -42 -179 -96 -228 -198 -31 -66 -54 -168 -54 -244
0 -74 15 -75 23 -2 8 75 70 205 118 249 35 31 108 75 126 75 4 0 -13 -13 -38
-28 -85 -54 -143 -158 -142 -257 0 -154 134 -289 300 -303 53 -4 70 -1 117 22
66 32 119 89 155 165 21 45 26 70 25 126 -1 88 -28 147 -94 209 -57 54 -56 58
5 15 88 -63 129 -148 129 -269 1 -65 -3 -82 -29 -130 -39 -71 -88 -120 -156
-154 -30 -16 -42 -26 -28 -22 86 19 174 88 214 166 35 69 65 176 72 256 5 66
9 76 39 105 19 18 34 37 34 41 0 4 -27 8 -59 8 -43 0 -60 4 -65 15 -3 8 0 15
6 15 6 0 -13 17 -43 38 -30 21 -53 45 -53 54 1 11 -25 22 -92 42 -114 32 -206
34 -282 6z m162 -201 c31 -25 33 -57 6 -87 -37 -39 -75 -22 -100 43 -10 26 -9
32 10 47 29 23 51 23 84 -3z m-190 -327 c34 -38 96 -65 147 -65 53 1 76 11
132 61 22 20 37 31 33 23 -5 -7 -11 -30 -13 -50 -3 -20 -10 -42 -15 -48 -6 -7
-7 -13 -4 -13 13 0 -18 -25 -47 -38 -41 -18 -135 -15 -183 7 -87 40 -144 117
-98 135 10 4 13 13 9 28 -6 22 -5 22 6 3 6 -11 21 -31 33 -43z"/>
<path d="M7613 7315 c-95 -49 -179 -181 -202 -319 -7 -38 -21 -91 -31 -119
-11 -28 -17 -53 -15 -56 15 -14 48 54 68 141 7 31 17 50 29 54 25 8 84 -13
136 -47 72 -49 72 -35 -2 43 -68 71 -75 84 -68 128 9 64 70 93 198 92 84 -1
91 1 87 18 -3 10 -18 30 -34 46 -36 34 -117 44 -166 19z"/>
<path d="M6688 6883 c7 -3 16 -2 19 1 4 3 -2 6 -13 5 -11 0 -14 -3 -6 -6z"/>
<path d="M5760 6705 c0 -21 9 -44 26 -64 31 -37 40 -38 64 -9 18 22 17 23 -21
51 -21 16 -39 32 -39 37 0 4 -7 10 -15 14 -12 4 -15 -3 -15 -29z"/>
<path d="M5915 6669 c-10 -15 -5 -17 43 -22 54 -7 64 9 15 22 -47 13 -50 13
-58 0z"/>
<path d="M6279 6540 c-22 -23 -60 -46 -95 -60 -79 -30 -226 -60 -295 -60 -59
0 -154 24 -179 44 -28 24 -48 25 -66 5 -15 -17 -15 -19 -1 -19 9 0 45 -16 81
-35 77 -43 171 -62 225 -47 20 6 74 18 121 28 99 20 102 22 196 85 40 26 82
49 95 51 32 4 34 23 4 36 -37 17 -46 14 -86 -28z"/>
<path d="M1635 7160 c-8 -13 12 -40 31 -40 10 0 11 6 5 22 -9 25 -26 34 -36
18z"/>
<path d="M1754 7145 c-8 -20 4 -35 26 -35 25 0 35 17 20 35 -16 19 -39 19 -46
0z"/>
<path d="M9735 4340 c-30 -6 -29 -6 10 -12 46 -6 51 -5 33 9 -7 5 -26 7 -43 3z"/>
<path d="M9632 4313 c-24 -8 -42 -17 -40 -19 5 -4 85 20 94 29 11 10 -5 8 -54
-10z"/>
<path d="M9340 2599 c0 -5 5 -7 10 -4 6 3 10 8 10 11 0 2 -4 4 -10 4 -5 0 -10
-5 -10 -11z"/>
<path d="M6221 2552 c-1 -7 -11 -17 -23 -22 -18 -7 -19 -9 -5 -9 9 -1 17 -5
17 -11 0 -14 17 -12 23 3 2 6 1 21 -4 32 -4 11 -8 14 -8 7z"/>
<path d="M6040 2524 c0 -16 32 -26 53 -18 14 5 14 8 3 19 -16 17 -56 15 -56
-1z"/>
<path d="M3930 2400 c0 -5 5 -10 10 -10 6 0 10 5 10 10 0 6 -4 10 -10 10 -5 0
-10 -4 -10 -10z"/>
<path d="M3070 2365 c7 -9 15 -13 17 -11 7 7 -7 26 -19 26 -6 0 -6 -6 2 -15z"/>
<path d="M3056 2325 c-16 -12 -17 -15 -4 -15 9 0 18 7 22 15 7 18 6 18 -18 0z"/>
<path d="M3414 2365 c10 -8 23 -12 28 -9 14 9 -2 24 -25 24 -21 -1 -21 -1 -3
-15z"/>
<path d="M2830 2261 c0 -12 5 -21 10 -21 6 0 10 6 10 14 0 8 -4 18 -10 21 -5
3 -10 -3 -10 -14z"/>
<path d="M7936 1371 c-3 -5 1 -11 9 -15 8 -3 15 -1 15 4 0 13 -18 22 -24 11z"/>
<path d="M7695 1320 c-9 -15 4 -30 23 -29 15 1 14 2 -1 6 -11 3 -16 11 -13 19
6 16 0 19 -9 4z"/>
<path d="M7325 1300 c3 -5 8 -10 11 -10 2 0 4 5 4 10 0 6 -5 10 -11 10 -5 0
-7 -4 -4 -10z"/>
<path d="M7443 1292 c10 -10 14 -22 10 -27 -5 -4 2 -2 15 4 12 7 20 17 16 23
-4 7 -9 6 -15 -3 -6 -11 -9 -10 -15 4 -3 9 -11 17 -17 17 -5 0 -3 -8 6 -18z"/>
<path d="M7620 1274 c0 -8 5 -12 10 -9 6 4 8 11 5 16 -9 14 -15 11 -15 -7z"/>
<path d="M9586 9108 c10 -35 23 -56 24 -39 0 8 7 11 20 8 10 -3 21 0 23 6 2 6
13 -6 26 -26 19 -32 22 -45 16 -88 -4 -29 -10 -47 -14 -42 -12 19 -47 31 -83
28 -24 -2 -38 1 -38 8 0 7 -7 4 -14 -5 -8 -11 -26 -18 -45 -18 -29 0 -31 2
-20 21 8 17 8 20 -1 14 -15 -9 -49 -84 -50 -107 0 -15 7 -17 43 -12 23 2 92 6
152 7 l110 2 -1 55 c-2 57 -7 80 -27 115 -6 11 -19 37 -29 58 -17 34 -22 37
-59 37 -37 0 -40 -2 -33 -22z"/>
<path d="M8666 8678 c-16 -37 -5 -39 219 -44 210 -4 793 8 690 14 -29 2 -44 6
-36 11 7 5 -24 11 -71 14 -45 3 -87 3 -93 -1 -5 -3 -16 -7 -25 -7 -8 -1 -36
-5 -61 -9 -30 -4 -74 -1 -125 10 -78 16 -215 15 -416 -2 -59 -5 -67 -4 -71 13
-4 17 -4 17 -11 1z"/>
<path d="M9800 8678 c0 -13 -15 -18 -67 -23 -98 -9 -99 -13 -7 -14 68 -1 83 2
88 16 4 9 2 21 -4 27 -7 7 -10 5 -10 -6z"/>
<path d="M8735 8513 c-31 -8 -42 -22 -25 -33 21 -14 477 -13 485 0 4 6 4 18 1
27 -5 12 -9 13 -21 3 -17 -14 -208 -24 -200 -9 4 5 0 9 -9 9 -8 0 -17 -6 -19
-12 -4 -10 -8 -9 -16 2 -8 11 -32 15 -93 17 -46 1 -92 -1 -103 -4z"/>
<path d="M8693 8353 c-12 -32 9 -36 171 -30 157 5 196 10 196 28 0 14 -362 16
-367 2z"/>
<path d="M8991 8208 c-18 -5 -82 -8 -142 -6 -70 2 -108 -1 -106 -7 3 -6 54 -9
132 -8 101 2 132 5 144 17 8 9 13 16 11 15 -3 0 -20 -5 -39 -11z"/>
<path d="M9117 8022 c-15 -2 -25 -8 -22 -13 11 -17 385 -5 385 13 0 7 -296 8
-363 0z"/>
<path d="M8700 7915 c0 -9 6 -12 15 -9 8 4 15 7 15 9 0 2 -7 5 -15 9 -9 3 -15
0 -15 -9z"/>
<path d="M9720 7763 c14 -2 32 -6 40 -9 8 -3 17 -5 20 -6 3 0 12 -4 22 -9 11
-6 18 -4 21 5 9 22 -2 26 -67 25 -34 -1 -50 -4 -36 -6z"/>
<path d="M9618 7753 c12 -2 32 -2 45 0 12 2 2 4 -23 4 -25 0 -35 -2 -22 -4z"/>
<path d="M8691 7733 c-1 -22 3 -23 57 -21 l57 2 -52 3 c-38 3 -53 8 -56 21 -3
12 -5 11 -6 -5z"/>
<path d="M8950 7720 c0 -6 11 -8 28 -4 39 10 40 14 4 14 -18 0 -32 -5 -32 -10z"/>
<path d="M1538 7363 c6 -2 18 -2 25 0 6 3 1 5 -13 5 -14 0 -19 -2 -12 -5z"/>
<path d="M9780 7131 c41 -3 81 -10 88 -14 15 -10 17 -143 2 -152 -12 -7 -13
-48 -3 -59 4 -4 8 -22 9 -39 1 -18 6 -70 13 -117 6 -48 11 -227 11 -414 0
-181 2 -327 5 -325 7 8 7 1042 0 1062 -4 9 -3 17 3 17 16 0 21 -36 28 -225 4
-99 8 -182 10 -184 10 -11 3 370 -7 392 -20 44 -77 67 -160 65 l-74 -1 75 -6z"/>
<path d="M8962 7097 l-32 -33 2 -244 2 -245 6 248 5 249 33 29 c18 16 29 29
24 29 -4 0 -22 -15 -40 -33z"/>
<path d="M9283 7123 c75 -2 199 -2 275 0 75 1 13 3 -138 3 -151 0 -213 -2
-137 -3z"/>
<path d="M9087 7028 c-45 -25 -62 -133 -26 -167 18 -16 42 -20 182 -26 230
-10 543 -3 558 12 17 17 23 105 10 145 -11 33 -15 36 -68 42 -91 11 -636 6
-656 -6z m701 -25 c13 -18 16 -92 6 -130 l-6 -23 -352 0 c-260 0 -355 3 -364
12 -16 16 -15 120 1 141 17 23 73 26 412 21 259 -3 291 -6 303 -21z"/>
<path d="M9270 6676 c0 -3 9 -10 20 -16 11 -6 20 -8 20 -6 0 3 -9 10 -20 16
-11 6 -20 8 -20 6z"/>
<path d="M9460 6639 l-35 -30 38 26 c33 24 43 35 34 35 -1 0 -18 -14 -37 -31z"/>
<path d="M9941 6654 c0 -11 3 -14 6 -6 3 7 2 16 -1 19 -3 4 -6 -2 -5 -13z"/>
<path d="M9175 6540 c10 -11 20 -20 23 -20 3 0 -3 9 -13 20 -10 11 -20 20 -23
20 -3 0 3 -9 13 -20z"/>
<path d="M9466 6520 c18 -18 36 -31 42 -29 5 2 -9 17 -32 33 l-41 28 31 -32z"/>
<path d="M8933 6385 c0 -27 2 -38 4 -22 2 15 2 37 0 50 -2 12 -4 0 -4 -28z"/>
<path d="M9953 6300 c0 -47 2 -66 4 -42 2 23 2 61 0 85 -2 23 -4 4 -4 -43z"/>
<path d="M0 5834 c0 -284 2 -337 16 -370 34 -81 205 -587 233 -691 16 -59 35
-121 41 -138 6 -16 27 -88 46 -160 45 -168 82 -275 104 -299 15 -15 26 -17 64
-12 61 10 80 29 71 75 -7 37 -12 55 -84 286 -22 72 -68 227 -101 345 -34 118
-100 331 -146 473 -83 248 -101 313 -179 626 -62 248 -64 244 -65 -135z"/>
<path d="M9946 6079 c-3 -17 -6 -42 -6 -54 0 -24 -39 -80 -40 -57 0 9 -8 8
-32 -4 -27 -14 -86 -17 -440 -21 -284 -2 -414 0 -429 7 -11 6 -29 26 -39 43
-12 20 -20 26 -20 16 0 -10 16 -31 35 -48 l36 -31 372 -2 c205 -2 395 -2 424
-2 99 2 137 36 149 133 7 56 0 70 -10 20z"/>
<path d="M8932 6055 c0 -16 2 -22 5 -12 2 9 2 23 0 30 -3 6 -5 -1 -5 -18z"/>
<path d="M8900 5563 c25 -26 46 -50 48 -52 1 -2 5 -2 8 2 7 7 -75 97 -89 97
-6 0 9 -21 33 -47z"/>
<path d="M8820 5563 c8 -3 24 -10 35 -15 20 -9 20 -9 1 6 -11 9 -27 16 -35 15
-14 0 -14 -1 -1 -6z"/>
<path d="M8891 5513 c7 -12 15 -20 18 -17 3 2 -3 12 -13 22 -17 16 -18 16 -5
-5z"/>
<path d="M9781 4945 c-1 -44 2 -64 9 -60 6 4 10 -5 11 -22 0 -24 1 -25 8 -8
11 27 2 127 -14 143 -10 11 -12 0 -14 -53z"/>
<path d="M9340 4921 c0 -5 9 -19 20 -32 l21 -24 -16 33 c-15 31 -25 41 -25 23z"/>
<path d="M9449 4723 c-13 -16 -12 -17 4 -4 9 7 17 15 17 17 0 8 -8 3 -21 -13z"/>
<path d="M10178 4595 c-4 -11 -21 -45 -38 -75 -37 -64 -27 -57 19 14 18 27 30
56 29 65 -3 13 -5 12 -10 -4z"/>
<path d="M10125 4590 l-30 -8 33 -1 c17 0 32 4 32 9 0 6 -1 9 -2 9 -2 -1 -16
-5 -33 -9z"/>
<path d="M2221 3984 c0 -11 3 -14 6 -6 3 7 2 16 -1 19 -3 4 -6 -2 -5 -13z"/>
<path d="M8610 3980 c0 -5 5 -10 11 -10 5 0 7 5 4 10 -3 6 -8 10 -11 10 -2 0
-4 -4 -4 -10z"/>
<path d="M8601 3893 c-1 -6 -4 -20 -7 -30 -5 -17 -5 -17 6 0 6 10 9 23 6 30
-3 9 -5 9 -5 0z"/>
<path d="M1680 3880 l-285 -5 275 -2 c151 -1 293 2 315 6 31 7 33 8 10 8 -16
-1 -158 -4 -315 -7z"/>
<path d="M350 3861 c0 -5 5 -13 10 -16 6 -3 10 -2 10 4 0 5 -4 13 -10 16 -5 3
-10 2 -10 -4z"/>
<path d="M8525 3810 c3 -5 8 -10 11 -10 2 0 4 5 4 10 0 6 -5 10 -11 10 -5 0
-7 -4 -4 -10z"/>
<path d="M8419 3613 c-13 -16 -12 -17 4 -4 9 7 17 15 17 17 0 8 -8 3 -21 -13z"/>
<path d="M8320 3590 c0 -5 5 -10 10 -10 6 0 10 5 10 10 0 6 -4 10 -10 10 -5 0
-10 -4 -10 -10z"/>
<path d="M8436 3581 c-4 -7 -5 -15 -2 -18 9 -9 19 4 14 18 -4 11 -6 11 -12 0z"/>
<path d="M8350 3569 c0 -5 5 -7 10 -4 6 3 10 8 10 11 0 2 -4 4 -10 4 -5 0 -10
-5 -10 -11z"/>
<path d="M8390 3572 c0 -5 7 -13 16 -16 10 -4 14 -1 12 6 -5 15 -28 23 -28 10z"/>
<path d="M4980 3536 c0 -10 9 -16 24 -16 43 0 116 -123 119 -201 2 -34 3 -36
27 -27 14 5 31 11 38 13 15 5 -76 191 -107 220 -11 9 -38 19 -60 22 -33 5 -41
3 -41 -11z"/>
<path d="M8285 3540 c3 -5 8 -10 11 -10 2 0 4 5 4 10 0 6 -5 10 -11 10 -5 0
-7 -4 -4 -10z"/>
<path d="M8360 3540 c-9 -6 -10 -10 -3 -10 6 0 15 5 18 10 8 12 4 12 -15 0z"/>
<path d="M8260 3505 c0 -8 2 -15 4 -15 2 0 6 7 10 15 3 8 1 15 -4 15 -6 0 -10
-7 -10 -15z"/>
<path d="M8180 3500 c0 -4 9 -10 20 -13 11 -3 20 -2 20 3 0 4 -9 10 -20 13
-11 3 -20 2 -20 -3z"/>
<path d="M8207 3456 c-4 -10 -5 -21 -2 -24 9 -9 17 6 13 25 -3 17 -4 17 -11
-1z"/>
<path d="M8055 3450 c3 -5 8 -10 11 -10 2 0 4 5 4 10 0 6 -5 10 -11 10 -5 0
-7 -4 -4 -10z"/>
<path d="M8165 3430 c3 -5 8 -10 11 -10 2 0 4 5 4 10 0 6 -5 10 -11 10 -5 0
-7 -4 -4 -10z"/>
<path d="M8236 3425 c6 -14 4 -16 -6 -10 -9 5 -11 4 -6 -3 8 -14 36 -16 36 -3
0 5 -7 14 -15 21 -13 11 -14 10 -9 -5z"/>
<path d="M7780 3422 c0 -5 7 -13 16 -16 10 -4 14 -1 12 6 -5 15 -28 23 -28 10z"/>
<path d="M7525 3410 c3 -5 8 -10 11 -10 2 0 4 5 4 10 0 6 -5 10 -11 10 -5 0
-7 -4 -4 -10z"/>
<path d="M7829 3403 c-13 -16 -12 -17 4 -4 9 7 17 15 17 17 0 8 -8 3 -21 -13z"/>
<path d="M7984 3398 c22 -33 22 -33 29 -8 3 11 1 17 -4 14 -6 -3 -17 0 -26 8
-14 11 -13 8 1 -14z"/>
<path d="M7560 3400 c0 -5 5 -10 10 -10 6 0 10 5 10 10 0 6 -4 10 -10 10 -5 0
-10 -4 -10 -10z"/>
<path d="M7885 3389 c-3 -4 -13 -5 -23 -2 -14 5 -15 4 -4 -8 10 -10 17 -11 31
-2 12 8 22 8 28 2 7 -7 12 -6 15 3 6 15 -39 22 -47 7z"/>
<path d="M7473 3383 c-7 -2 -13 -9 -13 -15 0 -6 6 -6 15 2 8 6 20 8 26 4 8 -4
9 -3 5 4 -8 13 -13 14 -33 5z"/>
<path d="M7955 3380 c3 -5 8 -10 11 -10 2 0 4 5 4 10 0 6 -5 10 -11 10 -5 0
-7 -4 -4 -10z"/>
<path d="M7415 3330 c-4 -14 -14 -20 -27 -18 -13 2 -23 -4 -28 -18 -6 -14 -4
-21 5 -21 7 0 11 7 8 16 -3 12 -1 11 11 -3 15 -18 16 -18 28 10 7 16 17 32 21
35 5 4 4 9 -1 13 -6 3 -14 -3 -17 -14z"/>
<path d="M4450 3290 c8 -5 20 -10 25 -10 6 0 3 5 -5 10 -8 5 -19 10 -25 10 -5
0 -3 -5 5 -10z"/>
<path d="M3903 3202 c-34 -42 -74 -90 -88 -105 -37 -39 -24 -45 22 -11 48 37
63 52 89 89 21 29 47 95 41 101 -2 2 -31 -31 -64 -74z"/>
<path d="M4490 3276 c0 -2 15 -9 33 -15 29 -10 30 -9 13 4 -18 14 -46 20 -46
11z"/>
<path d="M4995 3249 c-16 -5 -46 -11 -66 -14 -20 -3 -51 -10 -70 -15 -49 -14
-126 -12 -193 5 -33 9 -61 14 -63 11 -9 -8 125 -47 182 -53 53 -5 71 -1 155
31 112 44 138 60 55 35z"/>
<path d="M4253 3233 c9 -2 25 -2 35 0 9 3 1 5 -18 5 -19 0 -27 -2 -17 -5z"/>
<path d="M3700 3133 c-27 -19 -43 -24 -72 -20 -28 4 -35 2 -31 -9 10 -26 41
-25 87 3 25 15 48 33 51 40 5 16 7 17 -35 -14z"/>
<path d="M9555 3068 c-49 -5 -169 -7 -265 -5 -123 3 -166 2 -145 -5 36 -12
468 -16 508 -5 30 8 37 28 10 26 -10 -1 -58 -6 -108 -11z"/>
<path d="M3878 2983 c7 -3 16 -2 19 1 4 3 -2 6 -13 5 -11 0 -14 -3 -6 -6z"/>
<path d="M5300 2975 c-8 -2 -32 -7 -54 -10 -27 -4 -35 -10 -28 -17 7 -7 31 -7
79 1 84 15 117 31 58 30 -22 -1 -47 -3 -55 -4z"/>
<path d="M5120 2950 c0 -5 16 -10 35 -10 19 0 35 5 35 10 0 6 -16 10 -35 10
-19 0 -35 -4 -35 -10z"/>
<path d="M4298 2943 c7 -3 16 -2 19 1 4 3 -2 6 -13 5 -11 0 -14 -3 -6 -6z"/>
<path d="M5908 2833 c-2 -38 -2 -81 2 -98 l6 -30 102 -3 102 -3 0 85 c0 46 -3
91 -6 100 -5 13 -24 16 -104 16 l-98 0 -4 -67z"/>
<path d="M3400 2840 c-8 -5 -12 -11 -10 -14 3 -2 14 2 24 10 22 15 10 19 -14
4z"/>
<path d="M1351 2815 c-1 -15 11 -28 41 -47 89 -57 609 -42 632 18 5 12 0 12
-24 -1 -64 -33 -269 -44 -477 -25 -100 9 -156 27 -166 52 -3 7 -6 9 -6 3z"/>
<path d="M2240 2721 c0 -5 13 -20 29 -34 34 -28 118 -51 246 -67 50 -6 105
-16 123 -21 55 -18 417 27 434 53 13 22 9 28 -14 18 -34 -14 -283 -44 -363
-43 -45 0 -106 10 -170 27 -97 27 -277 75 -282 76 -2 0 -3 -4 -3 -9z"/>
<path d="M2960 2696 c0 -2 9 -6 20 -9 11 -3 20 -1 20 4 0 5 -9 9 -20 9 -11 0
-20 -2 -20 -4z"/>
<path d="M2878 2683 c12 -2 32 -2 45 0 12 2 2 4 -23 4 -25 0 -35 -2 -22 -4z"/>
<path d="M9860 2623 c0 -15 19 -37 26 -31 3 4 -1 14 -10 23 -9 9 -16 13 -16 8z"/>
<path d="M9919 2618 c-6 -22 -5 -38 2 -38 6 0 7 -4 4 -10 -3 -5 0 -7 8 -4 8 3
18 1 22 -5 3 -6 12 -11 18 -11 7 0 4 5 -7 11 -15 9 -16 13 -5 21 10 7 8 8 -8
3 -18 -5 -20 -2 -16 15 3 11 0 20 -6 20 -6 0 -11 -1 -12 -2z"/>
<path d="M9730 2440 c20 -13 57 -13 65 0 4 6 -11 10 -37 10 -31 0 -39 -3 -28
-10z"/>
<path d="M9858 2433 c7 -3 16 -2 19 1 4 3 -2 6 -13 5 -11 0 -14 -3 -6 -6z"/>
<path d="M9477 2422 c-26 -2 -35 -7 -30 -15 5 -8 2 -8 -9 1 -20 16 -211 5
-205 -12 4 -13 218 -9 232 5 5 5 26 9 46 9 21 0 40 3 42 8 5 8 -16 9 -76 4z"/>
<path d="M6028 2393 c7 -3 16 -2 19 1 4 3 -2 6 -13 5 -11 0 -14 -3 -6 -6z"/>
<path d="M5718 2383 c6 -2 18 -2 25 0 6 3 1 5 -13 5 -14 0 -19 -2 -12 -5z"/>
<path d="M5588 2373 c6 -2 18 -2 25 0 6 3 1 5 -13 5 -14 0 -19 -2 -12 -5z"/>
<path d="M5158 2323 c7 -3 16 -2 19 1 4 3 -2 6 -13 5 -11 0 -14 -3 -6 -6z"/>
<path d="M5030 2310 c-34 -7 -34 -7 -5 -8 17 0 44 4 60 8 27 7 27 8 5 8 -14
-1 -41 -4 -60 -8z"/>
<path d="M9678 2253 c12 -2 30 -2 40 0 9 3 -1 5 -23 4 -22 0 -30 -2 -17 -4z"/>
<path d="M9598 2243 c7 -3 16 -2 19 1 4 3 -2 6 -13 5 -11 0 -14 -3 -6 -6z"/>
<path d="M925 2209 c-10 -15 1 -23 20 -15 9 3 13 10 10 16 -8 13 -22 13 -30
-1z"/>
<path d="M4523 2185 c-18 -8 -33 -16 -33 -19 0 -6 51 14 65 26 13 11 5 10 -32
-7z"/>
<path d="M1506 2123 c-3 -8 -10 -12 -15 -9 -5 3 -14 -1 -21 -9 -19 -22 5 -27
135 -29 62 0 111 -4 108 -8 -6 -10 1 -10 31 2 19 7 26 6 26 -2 0 -6 3 -9 6 -6
3 4 20 2 37 -3 67 -21 77 -21 77 1 0 25 -15 26 -30 3 -10 -16 -10 -16 -6 2 5
19 1 20 -61 18 -53 -1 -77 4 -115 23 -26 13 -48 20 -48 14 0 -5 -9 -10 -21
-10 -13 0 -18 -4 -13 -12 4 -7 -4 -3 -17 8 -32 28 -66 36 -73 17z"/>
<path d="M1308 2113 c7 -3 16 -2 19 1 4 3 -2 6 -13 5 -11 0 -14 -3 -6 -6z"/>
<path d="M1365 2109 c4 -5 22 -9 42 -9 45 0 40 5 -10 13 -22 3 -35 2 -32 -4z"/>
<path d="M1974 2083 c-9 -7 -20 -10 -24 -8 -5 3 -7 -6 -6 -20 1 -22 5 -24 39
-21 20 2 37 1 37 -3 0 -24 367 -54 490 -39 50 6 76 6 78 -1 2 -6 21 -8 48 -4
43 6 44 5 44 -22 0 -16 3 -25 7 -22 10 11 12 54 3 84 l-8 28 -1 -28 c-1 -24
-3 -26 -20 -17 -11 5 -49 10 -84 10 -37 0 -91 9 -127 20 -34 11 -82 20 -106
20 -23 0 -45 4 -48 9 -3 4 -29 4 -58 0 -28 -5 -54 -6 -57 -4 -2 3 1 5 7 5 7 0
12 4 12 9 0 4 -27 6 -60 4 -33 -3 -60 -1 -60 4 0 13 -87 10 -106 -4z"/>
<path d="M8 2083 c7 -3 16 -2 19 1 4 3 -2 6 -13 5 -11 0 -14 -3 -6 -6z"/>
<path d="M73 2082 c-7 -4 22 -9 64 -10 42 -1 75 -1 72 1 -9 9 -125 16 -136 9z"/>
<path d="M1900 2060 c0 -11 4 -20 9 -20 17 0 19 15 5 28 -12 11 -14 9 -14 -8z"/>
<path d="M220 2066 c0 -2 16 -6 35 -8 19 -2 35 0 35 4 0 4 -16 8 -35 8 -19 0
-35 -2 -35 -4z"/>
<path d="M308 2053 c7 -3 16 -2 19 1 4 3 -2 6 -13 5 -11 0 -14 -3 -6 -6z"/>
<path d="M848 1983 c6 -2 18 -2 25 0 6 3 1 5 -13 5 -14 0 -19 -2 -12 -5z"/>
<path d="M6246 1978 c3 -5 10 -6 15 -3 13 9 11 12 -6 12 -8 0 -12 -4 -9 -9z"/>
<path d="M6090 1940 c0 -5 5 -10 10 -10 6 0 10 5 10 10 0 6 -4 10 -10 10 -5 0
-10 -4 -10 -10z"/>
<path d="M4343 1917 c4 -10 7 -24 7 -30 0 -8 3 -8 11 0 9 9 7 16 -7 30 -17 17
-18 17 -11 0z"/>
<path d="M1528 1913 c7 -3 16 -2 19 1 4 3 -2 6 -13 5 -11 0 -14 -3 -6 -6z"/>
<path d="M6160 1910 c0 -5 5 -10 11 -10 5 0 7 5 4 10 -3 6 -8 10 -11 10 -2 0
-4 -4 -4 -10z"/>
<path d="M5763 1903 c9 -2 23 -2 30 0 6 3 -1 5 -18 5 -16 0 -22 -2 -12 -5z"/>
<path d="M4638 1893 c7 -3 16 -2 19 1 4 3 -2 6 -13 5 -11 0 -14 -3 -6 -6z"/>
<path d="M5275 1890 c-3 -5 -1 -10 4 -10 6 0 11 5 11 10 0 6 -2 10 -4 10 -3 0
-8 -4 -11 -10z"/>
<path d="M4685 1870 c-3 -5 -1 -10 4 -10 6 0 11 5 11 10 0 6 -2 10 -4 10 -3 0
-8 -4 -11 -10z"/>
<path d="M2195 1840 c28 -5 77 -8 110 -8 l60 1 -60 7 c-33 4 -82 8 -110 8
l-50 -1 50 -7z"/>
<path d="M3190 200 c14 -11 60 -45 102 -75 43 -30 93 -71 112 -90 l35 -35 101
0 c73 0 100 3 100 13 0 7 -14 12 -38 12 -82 1 -153 37 -341 171 -19 13 -48 24
-65 24 l-31 0 25 -20z"/>
<path d="M3121 157 c-8 -10 -3 -19 20 -36 23 -17 28 -26 20 -34 -18 -18 -13
-28 8 -15 16 10 26 6 69 -30 31 -27 60 -42 77 -42 26 0 24 2 -22 39 -26 22
-70 60 -98 85 -55 51 -58 52 -74 33z"/>
</g>
</svg>
